<?xml version="1.0" encoding="UTF-8"?>
<svg version="1.1" xmlns="http://www.w3.org/2000/svg" width="200" height="200">
<path d="M0 0 C2 1 2 1 2.6328125 2.65234375 C7.11919674 23.48198485 2.21157683 42.1610191 -9 60 C-10.56758627 62.24824872 -12.05438278 64.05438278 -14 66 C-14.66 66 -15.32 66 -16 66 C-16 66.66 -16 67.32 -16 68 C-31.94911634 81.50457888 -31.94911634 81.50457888 -41 81 C-41 81.99 -41 82.98 -41 84 C-42.65 83.34 -44.3 82.68 -46 82 C-46 81.34 -46 80.68 -46 80 C-45.01 80 -44.02 80 -43 80 C-43 78.68 -43 77.36 -43 76 C-38.545 75.505 -38.545 75.505 -34 75 C-34 74.34 -34 73.68 -34 73 C-33.175 72.62875 -32.35 72.2575 -31.5 71.875 C-15.25486772 63.17225056 -10.40126713 49.29228681 -5.2734375 32.640625 C-3.76409809 27.18898118 -3.39252154 21.61925571 -3 16 C-3.17015625 16.94359375 -3.3403125 17.8871875 -3.515625 18.859375 C-6.29397895 33.57873953 -10.04609326 49.76720548 -22 60 C-23.04800781 60.24556641 -23.04800781 60.24556641 -24.1171875 60.49609375 C-24.73851562 60.66238281 -25.35984375 60.82867187 -26 61 C-26.33 61.99 -26.66 62.98 -27 64 C-28.6796875 65.17578125 -28.6796875 65.17578125 -30.875 66.3125 C-33.47525581 67.67414815 -36.05314438 69.03114807 -38.5859375 70.515625 C-52.03116783 78.32253294 -66.83994552 81.74578496 -82.28173828 78.52392578 C-86.65704779 77.34378917 -90.82180094 75.75644037 -95 74 C-95.96035156 73.61585938 -96.92070313 73.23171875 -97.91015625 72.8359375 C-98.59980469 72.56007813 -99.28945312 72.28421875 -100 72 C-100 71.34 -100 70.68 -100 70 C-100.85658203 69.60941406 -100.85658203 69.60941406 -101.73046875 69.2109375 C-110.5959079 64.48066876 -115.60578791 56.7540944 -120 48 C-120.4125 47.20980469 -120.825 46.41960937 -121.25 45.60546875 C-124.84282688 37.85183133 -125.25870354 29.40786249 -126 21 C-125.34 21 -124.68 21 -124 21 C-124 19.68 -124 18.36 -124 17 C-122.68 17.33 -121.36 17.66 -120 18 C-120.020625 18.680625 -120.04125 19.36125 -120.0625 20.0625 C-119.74820543 34.83434492 -111.21776949 47.81503234 -101 58 C-91.87925041 65.6797063 -77.8804386 69.62213989 -66.140625 68.6953125 C-56.59237372 67.37140498 -49.21413521 64.06193206 -41 59 C-34.18604651 55 -34.18604651 55 -32 55 C-31.62875 54.071875 -31.62875 54.071875 -31.25 53.125 C-30 51 -30 51 -28 50.0625 C-25.22564572 48.58862429 -25.13960687 46.89410953 -24 44 C-22.90834649 42.24959006 -21.78092479 40.52114866 -20.625 38.8125 C-17.32602002 33.70726032 -15.03923391 28.70490134 -13 23 C-12.15585677 20.64222062 -11.30136161 18.28812641 -10.4375 15.9375 C-10.04433594 14.83277344 -9.65117187 13.72804688 -9.24609375 12.58984375 C-8.62927734 11.30787109 -8.62927734 11.30787109 -8 10 C-7.01 9.67 -6.02 9.34 -5 9 C-5 7.35 -5 5.7 -5 4 C-4.34 4 -3.68 4 -3 4 C-3 5.32 -3 6.64 -3 8 C-2.34 8 -1.68 8 -1 8 C-1.020625 6.865625 -1.04125 5.73125 -1.0625 4.5625 C-1 1 -1 1 0 0 Z M-6 12 C-5 15 -5 15 -5 15 Z " fill="#3D3E3F" transform="translate(172,87)"/>
<path d="M0 0 C0.74443359 0.433125 0.74443359 0.433125 1.50390625 0.875 C1.50390625 1.535 1.50390625 2.195 1.50390625 2.875 C0.18390625 2.875 -1.13609375 2.875 -2.49609375 2.875 C-4.17276811 3.51608137 -5.83699371 4.18971955 -7.49609375 4.875 C-10.00485543 5.66082652 -12.52501377 6.4019204 -15.046875 7.14453125 C-17.88559816 7.99116798 -20.69341373 8.91618841 -23.49609375 9.875 C-23.49609375 10.535 -23.49609375 11.195 -23.49609375 11.875 C-24.44484375 12.205 -25.39359375 12.535 -26.37109375 12.875 C-39.05842135 18.42570582 -47.90822607 29.97627396 -52.93359375 42.5625 C-53.83454386 44.98741372 -54.6694195 47.422718 -55.49609375 49.875 C-55.79773437 50.66390625 -56.099375 51.4528125 -56.41015625 52.265625 C-59.52997893 62.11373997 -55.09667069 75.02349856 -51.01171875 84.0546875 C-46.96865701 91.57811682 -42.17133514 97.62002274 -35.49609375 102.875 C-28.14237211 110.52287051 -28.14237211 110.52287051 -26.49609375 114.875 C-26.99109375 116.36 -26.99109375 116.36 -27.49609375 117.875 C-30.87109375 118 -30.87109375 118 -34.49609375 117.875 C-35.48609375 116.885 -35.48609375 116.885 -36.49609375 115.875 C-37.15609375 115.875 -37.81609375 115.875 -38.49609375 115.875 C-41.49609375 111.49038462 -41.49609375 111.49038462 -41.49609375 108.875 C-42.13546875 108.771875 -42.77484375 108.66875 -43.43359375 108.5625 C-44.11421875 108.335625 -44.79484375 108.10875 -45.49609375 107.875 C-45.82609375 106.885 -46.15609375 105.895 -46.49609375 104.875 C-47.98109375 104.38 -47.98109375 104.38 -49.49609375 103.875 C-49.49609375 103.215 -49.49609375 102.555 -49.49609375 101.875 C-50.15609375 101.875 -50.81609375 101.875 -51.49609375 101.875 C-51.49609375 101.215 -51.49609375 100.555 -51.49609375 99.875 C-52.98109375 99.38 -52.98109375 99.38 -54.49609375 98.875 C-56.1015625 96.6953125 -56.1015625 96.6953125 -57.68359375 94 C-58.21339844 93.11570312 -58.74320313 92.23140625 -59.2890625 91.3203125 C-60.49609375 88.875 -60.49609375 88.875 -60.49609375 85.875 C-61.15609375 85.875 -61.81609375 85.875 -62.49609375 85.875 C-68.33466344 67.79243949 -70.92578881 53.81091174 -63.49609375 35.875 C-62.52522921 34.19119484 -61.52924488 32.52132212 -60.49609375 30.875 C-59.90020745 29.61000409 -59.31599945 28.33941136 -58.74609375 27.0625 C-55.06686453 19.59126826 -48.38126112 12.46511158 -41.49609375 7.875 C-40.17609375 7.875 -38.85609375 7.875 -37.49609375 7.875 C-37.49609375 7.215 -37.49609375 6.555 -37.49609375 5.875 C-33.38057847 3.65895331 -29.29581513 2.04594091 -24.859375 0.63671875 C-23.28385417 0.12890625 -21.71813472 -0.41038195 -20.1640625 -0.98046875 C-12.49745443 -3.76238957 -7.24932896 -3.96168262 0 0 Z " fill="#333435" transform="translate(91.49609375,54.125)"/>
<path d="M0 0 C7.97556638 5.78778402 15.81142875 13.6742351 17.75390625 23.70703125 C18.99721956 35.29155371 18.18122816 44.89516947 10.734375 54.1484375 C3.21605694 62.17475003 -4.97366203 65.3580633 -15.859375 65.9296875 C-25.38168834 66.14287362 -33.67983558 63.2792236 -41 57 C-41 56.34 -41 55.68 -41 55 C-41.99 54.67 -42.98 54.34 -44 54 C-44 53.34 -44 52.68 -44 52 C-44.66 52 -45.32 52 -46 52 C-51.81375723 42.54807394 -55.134206 33.690152 -53.6015625 22.48046875 C-51.76372845 14.90238679 -47.90998205 8.99065151 -42 4 C-41.34 4 -40.68 4 -40 4 C-40 3.34 -40 2.68 -40 2 C-37.35261084 0.5393715 -36.10551666 0 -33 0 C-33 -0.66 -33 -1.32 -33 -2 C-22.15350761 -5.47087756 -10.11457346 -5.65807719 0 0 Z M-42 13 C-46.36851286 18.55626521 -48.397079 23.56905514 -48.27734375 30.7265625 C-47.21561051 39.42978427 -42.27930473 47.4664373 -35.6015625 52.98046875 C-26.27456309 59.77265301 -19.35900066 60.56951063 -8 59 C-0.79547092 56.99218042 5.47353616 52.0193743 9.4609375 45.67578125 C12.81602791 38.28744386 13.48968689 30.63781426 11 22.88671875 C7.12277724 14.21804172 0.8352662 6.68640873 -8.125 3 C-9.40659268 2.62981885 -10.69897983 2.2947209 -12 2 C-13.2375 1.690625 -14.475 1.38125 -15.75 1.0625 C-25.90520201 0.1465406 -35.14804871 6.07275254 -42 13 Z " fill="#4F5152" transform="translate(119,73)"/>
<path d="M0 0 C14.19707457 11.13250782 22.87726007 26.37908007 25.125 44.25 C25.7157864 50.74865042 24.23680319 57.10833385 22.125 63.25 C21.135 63.745 21.135 63.745 20.125 64.25 C20.04765625 62.30673828 20.04765625 62.30673828 19.96875 60.32421875 C19.10568454 45.28466216 15.96843789 31.07978186 6.125 19.25 C6.125 18.59 6.125 17.93 6.125 17.25 C5.465 17.25 4.805 17.25 4.125 17.25 C1.93841088 15.21421013 -0.03679699 13.06440933 -2 10.8125 C-5.88412913 7.35055882 -10.18507738 5.42337878 -14.875 3.25 C-15.58269531 2.87230469 -16.29039063 2.49460937 -17.01953125 2.10546875 C-18.93177537 1.06682119 -18.93177537 1.06682119 -21.5 1.25 C-24.50793449 1.25 -26.67317907 0.87892228 -29.5625 0.1875 C-40.89434748 -2.19099872 -52.08709854 0.63071539 -61.6875 6.8125 C-62.99654297 7.71162109 -62.99654297 7.71162109 -64.33203125 8.62890625 C-70.39008229 12.49079747 -70.39008229 12.49079747 -74.1875 11.875 C-75.0228125 11.565625 -75.0228125 11.565625 -75.875 11.25 C-75.38 9.765 -75.38 9.765 -74.875 8.25 C-74.215 8.25 -73.555 8.25 -72.875 8.25 C-72.875 7.59 -72.875 6.93 -72.875 6.25 C-70.29489804 4.76494131 -67.71122441 3.28682689 -65.125 1.8125 C-64.39539063 1.39162109 -63.66578125 0.97074219 -62.9140625 0.53710938 C-62.20507812 0.13427734 -61.49609375 -0.26855469 -60.765625 -0.68359375 C-60.11625977 -1.05540771 -59.46689453 -1.42722168 -58.79785156 -1.81030273 C-56.875 -2.75 -56.875 -2.75 -54.69433594 -3.25415039 C-53.79376465 -3.49959595 -53.79376465 -3.49959595 -52.875 -3.75 C-52.545 -4.41 -52.215 -5.07 -51.875 -5.75 C-35.77809142 -13.51355325 -14.1357181 -9.65554515 0 0 Z " fill="#474747" transform="translate(136.875,36.75)"/>
<path d="M0 0 C2 1 2 1 2.6328125 2.65234375 C7.11919674 23.48198485 2.21157683 42.1610191 -9 60 C-10.56758627 62.24824872 -12.05438278 64.05438278 -14 66 C-14.66 66 -15.32 66 -16 66 C-16 66.66 -16 67.32 -16 68 C-31.94911634 81.50457888 -31.94911634 81.50457888 -41 81 C-41 81.99 -41 82.98 -41 84 C-42.65 83.34 -44.3 82.68 -46 82 C-46 81.34 -46 80.68 -46 80 C-45.01 80 -44.02 80 -43 80 C-43 78.68 -43 77.36 -43 76 C-38.545 75.505 -38.545 75.505 -34 75 C-34 74.34 -34 73.68 -34 73 C-33.175 72.62875 -32.35 72.2575 -31.5 71.875 C-15.25486772 63.17225056 -10.40126713 49.29228681 -5.2734375 32.640625 C-3.76409809 27.18898118 -3.39252154 21.61925571 -3 16 C-3.19335938 17.01320313 -3.38671875 18.02640625 -3.5859375 19.0703125 C-3.84874923 20.42191568 -4.11178183 21.77347592 -4.375 23.125 C-4.56449219 24.12273437 -4.56449219 24.12273437 -4.7578125 25.140625 C-5.5574274 29.218661 -6.59869485 33.08853085 -8 37 C-8.33 37 -8.66 37 -9 37 C-8.67 34.36 -8.34 31.72 -8 29 C-8.99 29.66 -9.98 30.32 -11 31 C-11 30.01 -11 29.02 -11 28 C-12.70840281 29.63412443 -13.93453047 30.86906094 -15 33 C-14.34 33.33 -13.68 33.66 -13 34 C-14.65 35.32 -16.3 36.64 -18 38 C-18.33 37.34 -18.66 36.68 -19 36 C-18.3984375 34.2578125 -18.3984375 34.2578125 -17.375 32.125 C-15.63058622 28.38869506 -14.00093755 24.62842813 -12.4375 20.8125 C-10.76976149 16.78213194 -9.03548205 12.85670284 -7 9 C-6.34 9 -5.68 9 -5 9 C-5 7.35 -5 5.7 -5 4 C-4.34 4 -3.68 4 -3 4 C-3 5.32 -3 6.64 -3 8 C-2.34 8 -1.68 8 -1 8 C-1.020625 6.865625 -1.04125 5.73125 -1.0625 4.5625 C-1 1 -1 1 0 0 Z M-6 12 C-5 15 -5 15 -5 15 Z " fill="#464948" transform="translate(172,87)"/>
<path d="M0 0 C5.0663716 2.87632651 7.92240596 6.24690105 10.0625 11.75 C11.41315029 18.87161062 11.27297406 23.81497933 7.75 30.375 C4.35154744 35.28387592 1.48072858 37.62664213 -4.25 39.375 C-11.56468043 40.07163623 -17.62917672 38.56400483 -23.5625 34.125 C-28.26051095 29.31773298 -29.41187486 25.35721772 -29.625 18.8125 C-29.43678568 12.83055804 -27.89611951 9.35034342 -24.0625 4.75 C-16.78536739 -1.3951342 -9.07179315 -4.05843378 0 0 Z M-21.609375 10.140625 C-23.95494799 14.22127938 -24.89222011 17.76167758 -23.9921875 22.41796875 C-22.24577433 27.02298452 -19.00482831 30.34010125 -14.8125 32.8125 C-10.22665643 33.81914859 -6.55498128 33.78440589 -2.0625 32.375 C1.76153666 29.65568504 3.28888365 26.78283702 4.75 22.375 C5.63929893 16.84158446 4.2583409 13.56928466 1.1640625 9.109375 C-1.9293644 5.31522709 -4.29556459 4.48275884 -9.125 3.9375 C-14.38596236 4.1856586 -18.36219419 5.92302234 -21.609375 10.140625 Z " fill="#3D4040" transform="translate(110.25,84.625)"/>
<path d="M0 0 C2.75372214 2.75372214 2.74450839 5.67517168 3.3125 9.375 C5.87701975 24.16113676 12.06034097 36.60069395 24 46 C31.35372164 53.64787051 31.35372164 53.64787051 33 58 C32.67 58.99 32.34 59.98 32 61 C28.625 61.125 28.625 61.125 25 61 C24.34 60.34 23.68 59.68 23 59 C22.34 59 21.68 59 21 59 C18 54.61538462 18 54.61538462 18 52 C17.360625 51.896875 16.72125 51.79375 16.0625 51.6875 C15.381875 51.460625 14.70125 51.23375 14 51 C13.67 50.01 13.34 49.02 13 48 C11.515 47.505 11.515 47.505 10 47 C10 46.34 10 45.68 10 45 C9.34 45 8.68 45 8 45 C8 44.34 8 43.68 8 43 C7.01 42.67 6.02 42.34 5 42 C3.39453125 39.8203125 3.39453125 39.8203125 1.8125 37.125 C1.28269531 36.24070313 0.75289062 35.35640625 0.20703125 34.4453125 C-1 32 -1 32 -1 29 C-1.66 29 -2.32 29 -3 29 C-3.70005949 26.92085336 -4.38462244 24.83648414 -5.0625 22.75 C-5.44535156 21.58984375 -5.82820313 20.4296875 -6.22265625 19.234375 C-6.96574362 16.14253409 -7.20875622 14.86051209 -6 12 C-5.34 11.01 -4.68 10.02 -4 9 C-3.26616834 7.44931194 -2.55903813 5.8857877 -1.875 4.3125 C-1.34519531 3.10013672 -1.34519531 3.10013672 -0.8046875 1.86328125 C-0.53914063 1.24839844 -0.27359375 0.63351563 0 0 Z " fill="#292929" transform="translate(32,111)"/>
<path d="M0 0 C0 0.99 0 1.98 0 3 C0.99 2.67 1.98 2.34 3 2 C1.98521523 14.84013379 -2.88532301 24.88532301 -12 34 C-12.69738281 34.16113281 -13.39476562 34.32226562 -14.11328125 34.48828125 C-14.73589844 34.65714844 -15.35851562 34.82601562 -16 35 C-16.33 35.99 -16.66 36.98 -17 38 C-22.82012336 43.01491212 -28.74680283 43.50187131 -36.1796875 43.2734375 C-39 43 -39 43 -42 42 C-42 41.34 -42 40.68 -42 40 C-41.34 40 -40.68 40 -40 40 C-40 39.34 -40 38.68 -40 38 C-39.43152344 37.68546875 -38.86304687 37.3709375 -38.27734375 37.046875 C-37.50519531 36.61890625 -36.73304687 36.1909375 -35.9375 35.75 C-34.71160156 35.07130859 -34.71160156 35.07130859 -33.4609375 34.37890625 C-31.31134414 33.17445156 -29.18583904 31.93731348 -27.0625 30.6875 C-24 29 -24 29 -22 29 C-21.7525 28.38125 -21.505 27.7625 -21.25 27.125 C-20 25 -20 25 -18 24.0625 C-15.2099091 22.58026421 -15.0657547 20.93082544 -14 18 C-11.24261134 13.17456984 -8.67841536 10.76451817 -4 8 C-4.495 6.515 -4.495 6.515 -5 5 C-3 2 -3 2 0 0 Z " fill="#161717" transform="translate(162,113)"/>
<path d="M0 0 C1.11117537 3.3335261 0.73560418 5.54797082 0.15625 8.96484375 C-0.13511248 11.35513422 -0.13511248 11.35513422 1 15 C1.66 11.7 2.32 8.4 3 5 C3.66 5.33 4.32 5.66 5 6 C4.835 6.495 4.67 6.99 4.5 7.5 C2.95794832 15.21025841 4.39359349 21.10980482 8 28 C9.55491743 30.14076451 11.22629545 32.02921717 13 34 C13 34.66 13 35.32 13 36 C13.53625 36.2475 14.0725 36.495 14.625 36.75 C17 38 17 38 19.875 40 C26.80417881 44.43467444 32.99254245 44.23322692 41 44 C39 46 39 46 36 47 C40.65537393 47.83796731 44.37078475 48.0161692 49 47 C49 46.34 49 45.68 49 45 C49.99 45.33 50.98 45.66 52 46 C46.27608111 51.47505285 37.39928665 51.45874277 29.921875 51.31640625 C25.39562316 50.82626401 21.91361478 49.24978594 18 47 C17.23042969 46.56816406 16.46085937 46.13632813 15.66796875 45.69140625 C11.64161811 43.31508372 11.64161811 43.31508372 10 42 C10 41.34 10 40.68 10 40 C9.01 39.67 8.02 39.34 7 39 C7 38.34 7 37.68 7 37 C6.34 37 5.68 37 5 37 C-1.39560016 26.60212176 -4.38793125 17.18064012 -2 5 C-0.9375 1.875 -0.9375 1.875 0 0 Z " fill="#5A5D5F" transform="translate(68,88)"/>
<path d="M0 0 C-3.75 5.875 -3.75 5.875 -6 7 C-5.68095703 7.81017578 -5.68095703 7.81017578 -5.35546875 8.63671875 C-4.85946692 11.93431333 -5.9395469 13.79973814 -7.3125 16.8125 C-8.83331215 20.24903132 -10.26476122 23.54192549 -11.1875 27.1875 C-11.455625 28.115625 -11.72375 29.04375 -12 30 C-12.66 30.33 -13.32 30.66 -14 31 C-14.94568583 33.15788312 -15.80952045 35.35212122 -16.625 37.5625 C-17.29402344 39.35880859 -17.29402344 39.35880859 -17.9765625 41.19140625 C-18.31429688 42.11824219 -18.65203125 43.04507813 -19 44 C-22.78206764 40.21793236 -23.19439717 35.72322575 -23.4375 30.5625 C-23.35239745 25.34505888 -22.33661488 20.80341876 -20.75 15.875 C-20.54560303 15.22345947 -20.34120605 14.57191895 -20.13061523 13.90063477 C-18.52274095 9.30783634 -18.52274095 9.30783634 -15.890625 7.7578125 C-15.26671875 7.50773437 -14.6428125 7.25765625 -14 7 C-13.67 6.01 -13.34 5.02 -13 4 C-9.4595392 1.47109943 -4.23291591 -2.11645796 0 0 Z " fill="#171918" transform="translate(46,81)"/>
<path d="M0 0 C3.69359834 1.00034955 7.13440684 2.05467397 10.6875 3.5 C23.53213282 8.26454831 34.13251615 6.3153466 47 3 C46.34 3.33 45.68 3.66 45 4 C45 4.66 45 5.32 45 6 C49.29 6.33 53.58 6.66 58 7 C51.27342999 13.72657001 42.46818044 16.08863659 33.25 17.625 C29.12894356 16.83248915 26.54255462 14.99750471 23.2109375 12.5078125 C20.33499163 10.54647839 17.53393237 9 14 9 C14.33 9.66 14.66 10.32 15 11 C11.05860922 9.33248852 8.2107188 6.77289351 5 4 C7.475 7.465 7.475 7.465 10 11 C6.31353859 9.54144353 4.83856029 7.69770955 2.75 4.375 C1.96882813 3.14910156 1.96882813 3.14910156 1.171875 1.8984375 C0.78515625 1.27195313 0.3984375 0.64546875 0 0 Z " fill="#0A0B0A" transform="translate(75,149)"/>
<path d="M0 0 C0.33 0.66 0.66 1.32 1 2 C1.66 2 2.32 2 3 2 C7.5776178 9.90865219 8.18447831 17.60773274 6.52734375 26.55078125 C4.22409301 34.53630326 -1.0894767 41.44199527 -8 46 C-10.875 45.8125 -10.875 45.8125 -13 45 C-13 45.66 -13 46.32 -13 47 C-18.19548425 49.20808081 -21.58264203 48.93402724 -27 48 C-26 46 -26 46 -23.375 44.9921875 C-22.26125 44.62351563 -21.1475 44.25484375 -20 43.875 C-11.64706997 40.73004391 -5.27053666 36.54160361 -1.4375 28.25 C0.8705437 21.410181 1.11830875 13.89227095 -1.125 7 C-2 4 -2 4 -1.125 1.5625 C-0.75375 1.046875 -0.3825 0.53125 0 0 Z " fill="#3F4041" transform="translate(130,88)"/>
<path d="M0 0 C-1 2 -1 2 -2 3 C1.68611622 4.53588176 5.19574713 5.68160243 9.125 6.375 C11 7 11 7 13 10 C8.12919527 10.15712273 3.8700571 10.07053447 -0.875 8.9375 C-10.59850436 6.83023899 -21.30771453 8.68910251 -29.89453125 13.68359375 C-31.76612074 14.88872701 -33.6221388 16.11860346 -35.45703125 17.37890625 C-41.51508229 21.24079747 -41.51508229 21.24079747 -45.3125 20.625 C-46.1478125 20.315625 -46.1478125 20.315625 -47 20 C-46.505 18.515 -46.505 18.515 -46 17 C-45.34 17 -44.68 17 -44 17 C-44 16.34 -44 15.68 -44 15 C-41.41989804 13.51494131 -38.83622441 12.03682689 -36.25 10.5625 C-35.52039063 10.14162109 -34.79078125 9.72074219 -34.0390625 9.28710938 C-33.33007812 8.88427734 -32.62109375 8.48144531 -31.890625 8.06640625 C-31.24125977 7.69459229 -30.59189453 7.32277832 -29.92285156 6.93969727 C-28 6 -28 6 -25.81933594 5.49584961 C-24.91876465 5.25040405 -24.91876465 5.25040405 -24 5 C-23.67 4.34 -23.34 3.68 -23 3 C-15.48473039 -0.07378757 -8.00996896 -0.37743309 0 0 Z " fill="#404142" transform="translate(108,28)"/>
<path d="M0 0 C1.33332095 2.6666419 0.67102033 4.16680303 0 7 C1.65 5.02 3.3 3.04 5 1 C5 4 5 4 3.9375 6.1875 C2.67135237 9.9859429 2.85407775 13.22215309 4 17 C5.84902809 20.24829258 8.11656854 22.48853968 11.375 24.375 C16.83910312 25.67597693 21.92133109 25.48028017 27 23 C28.32481546 20.60470331 28.32481546 20.60470331 29 18 C29.66 17.01 30.32 16.02 31 15 C30.96744792 16.98567708 30.93489583 18.97135417 30.90234375 20.95703125 C30.91736783 23.20305461 30.91736783 23.20305461 32 26 C26.86511322 30.40133153 23.02442113 32.45824527 16.11328125 32.25 C9.57851502 31.47694078 4.5487956 28.65458155 0 24 C-3.45234405 18.24609325 -3.7757384 12.62361251 -3 6 C-1.5 2.3125 -1.5 2.3125 0 0 Z " fill="#4C4E4F" transform="translate(84,92)"/>
<path d="M0 0 C7.67586476 8.98239494 10.26449282 19.90942103 11.3125 31.4375 C10.84682898 36.74614967 9.7343567 41.9560452 8 47 C7.01 47.495 7.01 47.495 6 48 C5.9484375 46.71609375 5.896875 45.4321875 5.84375 44.109375 C5.05155661 30.47196053 1.77281469 19.34596054 -4 7 C-3.34 7 -2.68 7 -2 7 C-1.67 7.66 -1.34 8.32 -1 9 C-0.67 6.03 -0.34 3.06 0 0 Z " fill="#646669" transform="translate(151,53)"/>
<path d="M0 0 C0.66 0.33 1.32 0.66 2 1 C2.4140625 3.28515625 2.4140625 3.28515625 2.625 6.0625 C2.69976562 6.98160156 2.77453125 7.90070313 2.8515625 8.84765625 C2.90054688 9.55792969 2.94953125 10.26820312 3 11 C2.01 10.67 1.02 10.34 0 10 C-0.04898438 11.05960938 -0.09796875 12.11921875 -0.1484375 13.2109375 C-0.22346709 14.59898497 -0.29901485 15.98700451 -0.375 17.375 C-0.42140625 18.42300781 -0.42140625 18.42300781 -0.46875 19.4921875 C-0.7734375 24.7734375 -0.7734375 24.7734375 -3 27 C-3 23.37 -3 19.74 -3 16 C-3.19335938 17.01320313 -3.38671875 18.02640625 -3.5859375 19.0703125 C-3.84874923 20.42191568 -4.11178183 21.77347592 -4.375 23.125 C-4.50132812 23.79015625 -4.62765625 24.4553125 -4.7578125 25.140625 C-5.5574274 29.218661 -6.59869485 33.08853085 -8 37 C-8.33 37 -8.66 37 -9 37 C-8.67 34.36 -8.34 31.72 -8 29 C-8.99 29.66 -9.98 30.32 -11 31 C-11 30.01 -11 29.02 -11 28 C-12.70840281 29.63412443 -13.93453047 30.86906094 -15 33 C-14.34 33.33 -13.68 33.66 -13 34 C-14.65 35.32 -16.3 36.64 -18 38 C-18.33 37.34 -18.66 36.68 -19 36 C-18.3984375 34.2578125 -18.3984375 34.2578125 -17.375 32.125 C-15.63058622 28.38869506 -14.00093755 24.62842813 -12.4375 20.8125 C-10.76976149 16.78213194 -9.03548205 12.85670284 -7 9 C-6.34 9 -5.68 9 -5 9 C-5 7.35 -5 5.7 -5 4 C-4.34 4 -3.68 4 -3 4 C-3 5.32 -3 6.64 -3 8 C-2.34 8 -1.68 8 -1 8 C-1.0309375 6.2984375 -1.0309375 6.2984375 -1.0625 4.5625 C-1 1 -1 1 0 0 Z M-6 12 C-5 15 -5 15 -5 15 Z " fill="#535554" transform="translate(172,87)"/>
<path d="M0 0 C1 3 1 3 0.14453125 4.8671875 C-5.16825238 12.87531297 -5.16825238 12.87531297 -8 16 C-8.66 16 -9.32 16 -10 16 C-10 16.66 -10 17.32 -10 18 C-25.94911634 31.50457888 -25.94911634 31.50457888 -35 31 C-35 31.99 -35 32.98 -35 34 C-36.65 33.34 -38.3 32.68 -40 32 C-40 31.34 -40 30.68 -40 30 C-39.01 30 -38.02 30 -37 30 C-37 28.68 -37 27.36 -37 26 C-34.03 25.67 -31.06 25.34 -28 25 C-28 24.34 -28 23.68 -28 23 C-27.175 22.62875 -26.35 22.2575 -25.5 21.875 C-16.57553646 17.09403739 -10.22349472 11.33614622 -6 2 C-5.34 2.66 -4.68 3.32 -4 4 C-2.68 2.68 -1.36 1.36 0 0 Z " fill="#707173" transform="translate(166,137)"/>
<path d="M0 0 C0 0.99 0 1.98 0 3 C0.99 2.67 1.98 2.34 3 2 C1.32574431 16.6497373 1.32574431 16.6497373 -3 22 C-8.30065677 25.76690192 -14.80010738 27.32297986 -21 29 C-20.67 28.34 -20.34 27.68 -20 27 C-19.34 27 -18.68 27 -18 27 C-17.79375 26.195625 -17.5875 25.39125 -17.375 24.5625 C-14.59411156 17.35747086 -10.82656179 11.73835527 -4 8 C-4.33 7.01 -4.66 6.02 -5 5 C-3 2 -3 2 0 0 Z " fill="#393A3A" transform="translate(162,113)"/>
<path d="M0 0 C3.77113919 2.43199997 6.56545408 4.69636225 8 9 C4.7 8.01 1.4 7.02 -2 6 C-1.505 6.70125 -1.01 7.4025 -0.5 8.125 C1.23207859 11.44481731 1.39312998 13.30457817 1 17 C-0.20706879 20.34265205 -0.92056849 20.94704566 -4 23 C-7.57694157 23.06748946 -9.99163749 22.87810633 -12.75390625 20.47265625 C-15.1950661 17.69032226 -16.81960865 15.54117405 -18 12 C-17.01 12 -16.02 12 -15 12 C-14.5875 12.78375 -14.175 13.5675 -13.75 14.375 C-11.37395786 17.9390632 -9.08137178 18.15292284 -5 19 C-5.33 18.01 -5.66 17.02 -6 16 C-6.99 15.67 -7.98 15.34 -9 15 C-10.90490982 11.19018036 -10.33435071 7.09858089 -9.125 3.125 C-7.05479725 -0.78538296 -4.09659368 -0.54105954 0 0 Z M-7 8 C-5.8321734 11.81413002 -5.8321734 11.81413002 -2.875 14.3125 C-2.25625 14.539375 -1.6375 14.76625 -1 15 C-1.10613836 12.54775306 -1.10613836 12.54775306 -2 10 C-4.47636012 8.62533375 -4.47636012 8.62533375 -7 8 Z " fill="#585859" transform="translate(105,90)"/>
<path d="M0 0 C1.32 0.33 2.64 0.66 4 1 C4.01417969 1.73863281 4.02835938 2.47726563 4.04296875 3.23828125 C4.31333643 8.98907493 4.92284594 13.37264397 7.625 18.5 C10.67648723 24.48930874 10.14296201 29.51567096 9 36 C6 35 6 35 4.68359375 32.8125 C0.40520723 23.15595361 -1.2539917 14.50301157 -2 4 C-1.34 4 -0.68 4 0 4 C0 2.68 0 1.36 0 0 Z " fill="#2B2E2D" transform="translate(48,104)"/>
<path d="M0 0 C0.49628906 0.28875 0.99257812 0.5775 1.50390625 0.875 C1.50390625 1.535 1.50390625 2.195 1.50390625 2.875 C0.18390625 2.875 -1.13609375 2.875 -2.49609375 2.875 C-3.25921875 3.205 -4.02234375 3.535 -4.80859375 3.875 C-8.14984332 5.11825565 -10.95191639 4.93943959 -14.49609375 4.875 C-15.10839844 5.05804688 -15.72070312 5.24109375 -16.3515625 5.4296875 C-19.20043421 6.02125649 -21.40536685 5.51240901 -24.24609375 4.9375 C-25.2309375 4.74285156 -26.21578125 4.54820313 -27.23046875 4.34765625 C-27.978125 4.19167969 -28.72578125 4.03570312 -29.49609375 3.875 C-20.92554421 -3.26371549 -9.75840351 -5.33286568 0 0 Z " fill="#393839" transform="translate(91.49609375,54.125)"/>
<path d="M0 0 C3.45195767 1.4258086 5.1014256 3.09746334 7.25 6.125 C8.03117187 7.21167969 8.03117187 7.21167969 8.828125 8.3203125 C9.40820312 9.15175781 9.40820312 9.15175781 10 10 C8.10786631 7.61426621 6.97608217 5.92824652 6 3 C9.43595166 4.52708963 12.11912454 6.59927045 15 9 C14.67 8.34 14.34 7.68 14 7 C20.20390012 8.19305772 25.60300336 11.86974195 31 15 C31 15.33 31 15.66 31 16 C23.22859609 17.09141544 17.2385335 17.23540512 10 14 C10 13.34 10 12.68 10 12 C8.68 11.34 7.36 10.68 6 10 C6 9.34 6 8.68 6 8 C5.34 8 4.68 8 4 8 C0 2.58823529 0 2.58823529 0 0 Z " fill="#4A4A4D" transform="translate(73,149)"/>
<path d="M0 0 C-0.45828208 2.67331214 -0.99837932 4.99618664 -2.0625 7.5 C-3.1505207 9.90979688 -3.1505207 9.90979688 -2.91015625 12.26953125 C-3.02206664 15.67063387 -4.03435934 18.06837938 -5.375 21.1875 C-5.81585937 22.23292969 -6.25671875 23.27835938 -6.7109375 24.35546875 C-8 27 -8 27 -10 29 C-11.59416641 22.82260516 -12.2551772 16.60817972 -9 10.9375 C-8.01 9.4834375 -8.01 9.4834375 -7 8 C-8.32 9.65 -9.64 11.3 -11 13 C-11.4375 10.375 -11.4375 10.375 -11 7 C-8.22676741 3.83371082 -4.41175574 0 0 0 Z " fill="#111212" transform="translate(36,96)"/>
<path d="M0 0 C5.51815062 0.07946137 10.33147808 1.44760339 15.0625 4.3125 C17.36449906 7.63008687 18.0625 9.30485361 18.0625 13.3125 C15.10074877 12.69972388 13.68191217 12.05877478 11.0625 10.3125 C8.0774392 8.62096555 5.41434325 7.96651819 2.0625 7.3125 C0.38709336 6.66811283 -1.27933216 6.00003301 -2.9375 5.3125 C-4.93370166 4.63454472 -6.93288701 3.96516469 -8.9375 3.3125 C-8.298125 3.003125 -7.65875 2.69375 -7 2.375 C-2.82491722 0.22419978 -2.82491722 0.22419978 0 0 Z " fill="#1D1E1E" transform="translate(111.9375,27.6875)"/>
<path d="M0 0 C1.11117537 3.3335261 0.73560418 5.54797082 0.15625 8.96484375 C-0.13511248 11.35513422 -0.13511248 11.35513422 1 15 C1.66 11.7 2.32 8.4 3 5 C3.66 5.33 4.32 5.66 5 6 C4.835 6.495 4.67 6.99 4.5 7.5 C3.08321759 14.58391203 4.19698009 19.32457055 7.125 25.80078125 C8 28 8 28 8 31 C7.01 30.67 6.02 30.34 5 30 C5.57584432 32.38564077 6.22227595 34.66682784 7 37 C6.34 37 5.68 37 5 37 C-1.39560016 26.60212176 -4.38793125 17.18064012 -2 5 C-0.9375 1.875 -0.9375 1.875 0 0 Z " fill="#3A3D3D" transform="translate(68,88)"/>
<path d="M0 0 C6.67822993 4.57935766 14.01642772 10.17990002 17 18 C16.67 18.99 16.34 19.98 16 21 C12.625 21.125 12.625 21.125 9 21 C8.34 20.34 7.68 19.68 7 19 C6.34 19 5.68 19 5 19 C3.3125 16.625 3.3125 16.625 2 14 C2.33 13.34 2.66 12.68 3 12 C3.33 12.33 3.66 12.66 4 13 C3.48553951 8.57563975 2.38617933 5.73488939 0 2 C0 1.34 0 0.68 0 0 Z " fill="#6A6B6C" transform="translate(48,151)"/>
<path d="M0 0 C2.81484045 2.81484045 2.62757042 5.2166247 3.125 9.125 C3.29257812 10.40632813 3.46015625 11.68765625 3.6328125 13.0078125 C3.81457031 14.48894531 3.81457031 14.48894531 4 16 C3.01 15.01 2.02 14.02 1 13 C0.01 17.29 -0.98 21.58 -2 26 C-1.34 26 -0.68 26 0 26 C0 27.98 0 29.96 0 32 C-0.33 31.01 -0.66 30.02 -1 29 C-1.66 29 -2.32 29 -3 29 C-3.70005949 26.92085336 -4.38462244 24.83648414 -5.0625 22.75 C-5.44535156 21.58984375 -5.82820313 20.4296875 -6.22265625 19.234375 C-6.96574362 16.14253409 -7.20875622 14.86051209 -6 12 C-5.34 11.01 -4.68 10.02 -4 9 C-3.26616834 7.44931194 -2.55903813 5.8857877 -1.875 4.3125 C-1.34519531 3.10013672 -1.34519531 3.10013672 -0.8046875 1.86328125 C-0.53914063 1.24839844 -0.27359375 0.63351563 0 0 Z " fill="#4C4C4D" transform="translate(32,111)"/>
<path d="M0 0 C-1.07101186 1.79905924 -2.15729915 3.58903096 -3.25 5.375 C-3.85328125 6.37273437 -4.4565625 7.37046875 -5.078125 8.3984375 C-7 11 -7 11 -9.1875 11.9375 C-9.785625 12.288125 -10.38375 12.63875 -11 13 C-11.70672206 16.10930941 -11.70672206 16.10930941 -11.75 19.625 C-11.80671875 20.81351563 -11.8634375 22.00203125 -11.921875 23.2265625 C-11.94765625 24.14179687 -11.9734375 25.05703125 -12 26 C-12.309375 25.360625 -12.61875 24.72125 -12.9375 24.0625 C-13.8345163 22.06389179 -13.8345163 22.06389179 -15 21 C-15.15778738 17.44978405 -15.02880273 14.39504902 -14 11 C-13.731875 9.845 -13.46375 8.69 -13.1875 7.5 C-10.62717091 -0.04623309 -7.3361656 -0.48907771 0 0 Z " fill="#303131" transform="translate(82,80)"/>
<path d="M0 0 C0.33 0.66 0.66 1.32 1 2 C1.66 2 2.32 2 3 2 C7.22550835 9.30032023 7.46251848 15.68751509 7 24 C6.01 24 5.02 24 4 24 C3.67 22.68 3.34 21.36 3 20 C3.66 19.67 4.32 19.34 5 19 C4.01 19 3.02 19 2 19 C1.67 21.31 1.34 23.62 1 26 C-0.07065764 22.78802708 -0.03570203 20.61448677 0.0625 17.25 C0.11124513 13.58082123 0.06281338 10.48021754 -1.125 7 C-2 4 -2 4 -1.125 1.5625 C-0.75375 1.046875 -0.3825 0.53125 0 0 Z " fill="#4A4C4B" transform="translate(130,88)"/>
<path d="M0 0 C0.33 0.66 0.66 1.32 1 2 C0.07421875 4.57421875 0.07421875 4.57421875 -1.3125 7.6875 C-3.22378387 12.09938026 -4.83517149 16.34068596 -6 21 C-6.33 21 -6.66 21 -7 21 C-8.35971223 14.57226946 -8.35971223 14.57226946 -6.625 11.8125 C-6.08875 11.214375 -5.5525 10.61625 -5 10 C-4.62372293 8.67814356 -4.28397614 7.34471054 -4 6 C-5.29373782 6.78827746 -6.58491951 7.58075116 -7.875 8.375 C-8.59429687 8.81585938 -9.31359375 9.25671875 -10.0546875 9.7109375 C-12.11793582 10.9853713 -12.11793582 10.9853713 -14 13 C-14 14.32 -14 15.64 -14 17 C-12.68 15.68 -11.36 14.36 -10 13 C-11.12451727 15.9719385 -12.22293791 18.33440687 -14 21 C-14.24107326 23.28648848 -14.24107326 23.28648848 -14.125 25.6875 C-14.10695313 26.49574219 -14.08890625 27.30398437 -14.0703125 28.13671875 C-14.04710937 28.75160156 -14.02390625 29.36648437 -14 30 C-14.66 30 -15.32 30 -16 30 C-17.17737235 21.88921268 -17.77647705 13.5529541 -14 6 C-13.67 6.66 -13.34 7.32 -13 8 C-12.45730469 7.71125 -11.91460937 7.4225 -11.35546875 7.125 C-10.64003906 6.75375 -9.92460937 6.3825 -9.1875 6 C-8.47980469 5.62875 -7.77210937 5.2575 -7.04296875 4.875 C-5 4 -5 4 -2 4 C-1.34 2.68 -0.68 1.36 0 0 Z " fill="#757676" transform="translate(40,90)"/>
<path d="M0 0 C3.59190171 2.69392628 6.25677805 5.46035877 9 9 C10.31494512 10.35147138 11.64264858 11.69112542 13 13 C12.34 13 11.68 13 11 13 C11.66 13.94875 12.32 14.8975 13 15.875 C15 19 15 19 15 21 C15.66 21 16.32 21 17 21 C18.38232443 22.62626404 19.71937515 24.2925002 21 26 C17.0507432 25.44894091 13.65079826 24.61064629 10 23 C10 22.34 10 21.68 10 21 C9.38125 20.731875 8.7625 20.46375 8.125 20.1875 C6 19 6 19 4 16 C4.66 16 5.32 16 6 16 C5.67 14.68 5.34 13.36 5 12 C5.66 12.33 6.32 12.66 7 13 C7 13.66 7 14.32 7 15 C7.66 14.67 8.32 14.34 9 14 C6.96197865 9.93975679 6.96197865 9.93975679 3 8 C3 7.01 3 6.02 3 5 C2.34 5 1.68 5 1 5 C0.67 3.35 0.34 1.7 0 0 Z " fill="#3D3E3F" transform="translate(62,136)"/>
<path d="M0 0 C0.99 0.33 1.98 0.66 3 1 C2.34 1 1.68 1 1 1 C1 1.66 1 2.32 1 3 C5.29 3.33 9.58 3.66 14 4 C9.98671022 8.01328978 6.65363295 10.19233815 1 11 C0.34 10.01 -0.32 9.02 -1 8 C-4.86281814 6.01340781 -8.7155798 5.50404943 -13 5 C-10.58112915 2.58112915 -9.25907651 2.50623037 -5.9375 1.9375 C-2.66916048 1.58972434 -2.66916048 1.58972434 0 0 Z " fill="#5F6262" transform="translate(119,152)"/>
<path d="M0 0 C1.94209357 4.97661477 -0.51642594 9.1674232 -2.390625 13.84765625 C-4.62120598 18.21677967 -6.95966272 20.28054221 -11 23 C-11.33 23 -11.66 23 -12 23 C-11.6083965 17.04492601 -10.62875405 12.37180176 -8 7 C-7.01 7 -6.02 7 -5 7 C-3.53909212 5.4645122 -3.53909212 5.4645122 -2.3125 3.5 C-1.87550781 2.8503125 -1.43851563 2.200625 -0.98828125 1.53125 C-0.66214844 1.0259375 -0.33601562 0.520625 0 0 Z " fill="#5B5E5F" transform="translate(173,119)"/>
<path d="M0 0 C0.66 0.33 1.32 0.66 2 1 C2.4140625 3.28515625 2.4140625 3.28515625 2.625 6.0625 C2.69976562 6.98160156 2.77453125 7.90070313 2.8515625 8.84765625 C2.90054688 9.55792969 2.94953125 10.26820312 3 11 C2.01 10.67 1.02 10.34 0 10 C-0.04898438 11.05960938 -0.09796875 12.11921875 -0.1484375 13.2109375 C-0.22346709 14.59898497 -0.29901485 15.98700451 -0.375 17.375 C-0.42140625 18.42300781 -0.42140625 18.42300781 -0.46875 19.4921875 C-0.7734375 24.7734375 -0.7734375 24.7734375 -3 27 C-3 23.37 -3 19.74 -3 16 C-3.33 18.31 -3.66 20.62 -4 23 C-4.33 23 -4.66 23 -5 23 C-5.144375 22.071875 -5.28875 21.14375 -5.4375 20.1875 C-5.92100111 16.99274889 -5.92100111 16.99274889 -7 14 C-7.66 14 -8.32 14 -9 14 C-8.34 12.35 -7.68 10.7 -7 9 C-6.34 9 -5.68 9 -5 9 C-5 7.35 -5 5.7 -5 4 C-4.34 4 -3.68 4 -3 4 C-3 5.32 -3 6.64 -3 8 C-2.34 8 -1.68 8 -1 8 C-1.020625 6.865625 -1.04125 5.73125 -1.0625 4.5625 C-1 1 -1 1 0 0 Z " fill="#707173" transform="translate(172,87)"/>
<path d="M0 0 C3 1 3 1 4.6875 3.1875 C6.52129978 7.11707095 6.66321448 10.16340606 5.1875 14.25 C4 16 4 16 1 18 C-2.57694157 18.06748946 -4.99163749 17.87810633 -7.75390625 15.47265625 C-10.1950661 12.69032226 -11.81960865 10.54117405 -13 7 C-12.01 7 -11.02 7 -10 7 C-9.5875 7.78375 -9.175 8.5675 -8.75 9.375 C-6.37395786 12.9390632 -4.08137178 13.15292284 0 14 C0.12375 13.360625 0.2475 12.72125 0.375 12.0625 C0.58125 11.381875 0.7875 10.70125 1 10 C1.66 9.67 2.32 9.34 3 9 C2.60196439 6.11424181 2.20990931 5.17810487 -0.0625 3.25 C-0.701875 2.8375 -1.34125 2.425 -2 2 C-1.34 1.34 -0.68 0.68 0 0 Z " fill="#6A6B6B" transform="translate(100,95)"/>
<path d="M0 0 C0.061875 0.61875 0.12375 1.2375 0.1875 1.875 C0.80875315 4.2501999 0.80875315 4.2501999 3.375 5.0625 C4.674375 5.5265625 4.674375 5.5265625 6 6 C7.8125 7.5 7.8125 7.5 9 9 C9 9.66 9 10.32 9 11 C9.99 11.33 10.98 11.66 12 12 C13.125 16.75 13.125 16.75 12 19 C10.35 18.67 8.7 18.34 7 18 C6.67 17.01 6.34 16.02 6 15 C5.01 14.67 4.02 14.34 3 14 C0.72948073 9.33282149 -0.14341972 5.1631098 0 0 Z " fill="#3A3C3D" transform="translate(72,113)"/>
<path d="M0 0 C0.66 0.33 1.32 0.66 2 1 C1.67 1.66 1.34 2.32 1 3 C1.66 3.33 2.32 3.66 3 4 C3 3.34 3 2.68 3 2 C4.98 2 6.96 2 9 2 C8.45214844 2.2578125 7.90429688 2.515625 7.33984375 2.78125 C3.64546767 4.7055327 0.23350303 7.05950844 -3.24609375 9.34375 C-9.68109248 13.2138769 -9.68109248 13.2138769 -13.3125 12.625 C-13.869375 12.41875 -14.42625 12.2125 -15 12 C-14.67 11.01 -14.34 10.02 -14 9 C-13.34 9 -12.68 9 -12 9 C-12 8.34 -12 7.68 -12 7 C-9.4453125 5.23828125 -9.4453125 5.23828125 -6.125 3.3125 C-5.03445312 2.66925781 -3.94390625 2.02601562 -2.8203125 1.36328125 C-1.88960937 0.91339844 -0.95890625 0.46351562 0 0 Z " fill="#686A6A" transform="translate(76,36)"/>
<path d="M0 0 C0.66 0.99 1.32 1.98 2 3 C1.360625 3.4125 0.72125 3.825 0.0625 4.25 C-2.41464576 6.00723864 -2.41464576 6.00723864 -3 10 C0.96 9.01 4.92 8.02 9 7 C7.43108518 10.13782964 5.97689907 12.50839252 3.875 15.25 C3.33617187 15.95640625 2.79734375 16.6628125 2.2421875 17.390625 C1.83226562 17.92171875 1.42234375 18.4528125 1 19 C0.01 18.67 -0.98 18.34 -2 18 C-1.175 17.21625 -0.35 16.4325 0.5 15.625 C3.22988506 13.36278736 3.22988506 13.36278736 3 11 C-3.89767894 13.8084122 -3.89767894 13.8084122 -10 18 C-9.69476605 11.89532095 -6.69436995 8.53984765 -3 4 C-1.99481954 2.67056778 -0.99332569 1.33831306 0 0 Z " fill="#5C5D5E" transform="translate(41,70)"/>
<path d="M0 0 C1 3 1 3 0.28125 5.05859375 C-3.53036633 10.83412215 -12.71761561 12.30066652 -19 14 C-18.67 13.34 -18.34 12.68 -18 12 C-17.34 12 -16.68 12 -16 12 C-15.9071875 11.071875 -15.9071875 11.071875 -15.8125 10.125 C-15.544375 9.42375 -15.27625 8.7225 -15 8 C-13.33333333 7.33333333 -11.66666667 6.66666667 -10 6 C-9.11306697 3.95894361 -9.11306697 3.95894361 -9 2 C-8.67 2.66 -8.34 3.32 -8 4 C-5.0280615 2.87548273 -2.66559313 1.77706209 0 0 Z " fill="#1E1F1E" transform="translate(160,128)"/>
<path d="M0 0 C3.2082267 1.46931391 5.30168381 2.89325595 7.25 5.9375 C8.87202402 10.39806606 8.27208393 15.32922591 8 20 C7.34 18.68 6.68 17.36 6 16 C5.34 16 4.68 16 4 16 C0.04887163 11.4166911 0.29271924 5.76354093 0 0 Z " fill="#232423" transform="translate(143,44)"/>
<path d="M0 0 C3.68340144 0.99758789 7.2154089 2.06133379 10.75 3.5 C15.67959299 5.41167287 20.79523989 6.18675623 26 7 C25.34 7.66 24.68 8.32 24 9 C26.31 10.32 28.62 11.64 31 13 C30.01 13.33 29.02 13.66 28 14 C25.95436401 12.73779907 23.95597184 11.39712274 22 10 C20.6808418 9.30570621 19.35350594 8.62469505 18 8 C18.33 8.66 18.66 9.32 19 10 C17.02 9.34 15.04 8.68 13 8 C13.99 9.485 13.99 9.485 15 11 C11.05860922 9.33248852 8.2107188 6.77289351 5 4 C7.475 7.465 7.475 7.465 10 11 C6.31353859 9.54144353 4.83856029 7.69770955 2.75 4.375 C1.96882813 3.14910156 1.96882813 3.14910156 1.171875 1.8984375 C0.78515625 1.27195313 0.3984375 0.64546875 0 0 Z " fill="#515355" transform="translate(75,149)"/>
<path d="M0 0 C2.49303533 3.73955299 2.54886799 7.6655572 2 12 C0.98782056 15.16614667 -0.51534676 18.03069353 -2 21 C-2.66 21 -3.32 21 -4 21 C-5.40333568 15.23073111 -4.67296616 9.81856895 -4 4 C-3.34 4.66 -2.68 5.32 -2 6 C-1.34 4.02 -0.68 2.04 0 0 Z " fill="#4E5455" transform="translate(119,96)"/>
<path d="M0 0 C0.66 0 1.32 0 2 0 C2 0.66 2 1.32 2 2 C5.3 2 8.6 2 12 2 C11.67 2.66 11.34 3.32 11 4 C10.01 4.33 9.02 4.66 8 5 C7.67 5.99 7.34 6.98 7 8 C4.27734375 8.94921875 4.27734375 8.94921875 0.9375 9.6875 C-0.71958984 10.06455078 -0.71958984 10.06455078 -2.41015625 10.44921875 C-3.26480469 10.63097656 -4.11945312 10.81273438 -5 11 C-3.88449178 7.13862539 -2.97526761 4.70478873 0 2 C0 1.34 0 0.68 0 0 Z " fill="#151615" transform="translate(42,70)"/>
<path d="M0 0 C1.65 0.66 3.3 1.32 5 2 C1.20991138 5.79008862 -4.36631138 7.74475264 -9.66015625 8.2578125 C-11.7751735 8.2511088 -13.88936016 8.13617031 -16 8 C-16 8.66 -16 9.32 -16 10 C-17.32 9.34 -18.64 8.68 -20 8 C-13.75788743 3.79020315 -7.32761972 2.45450497 0 1 C0 0.67 0 0.34 0 0 Z " fill="#383A3B" transform="translate(95,30)"/>
<path d="M0 0 C1.32 0.33 2.64 0.66 4 1 C4 4.96 4 8.92 4 13 C3.01 13.495 3.01 13.495 2 14 C1.95745644 15.99954746 1.95919217 18.00041636 2 20 C2.33 20.33 2.66 20.66 3 21 C3.04080783 22.99958364 3.04254356 25.00045254 3 27 C-1.43435502 20.34846747 -1.44701628 11.78542865 -2 4 C-1.34 4 -0.68 4 0 4 C0 2.68 0 1.36 0 0 Z " fill="#8D8E94" transform="translate(48,104)"/>
<path d="M0 0 C0.99 0.33 1.98 0.66 3 1 C2.34 1 1.68 1 1 1 C1 1.66 1 2.32 1 3 C0.34 3 -0.32 3 -1 3 C-1 3.66 -1 4.32 -1 5 C-1.99 5.33 -2.98 5.66 -4 6 C-4.33 6.33 -4.66 6.66 -5 7 C-6.78940972 7.09908783 -8.58285508 7.12970379 -10.375 7.125 C-11.35210937 7.12757813 -12.32921875 7.13015625 -13.3359375 7.1328125 C-16 7 -16 7 -19 6 C-19 5.34 -19 4.68 -19 4 C-15.02342356 2.15373237 -11.61277255 1.66945736 -7.25 1.4375 C-3.30633827 1.56485421 -3.30633827 1.56485421 0 0 Z " fill="#1B1B1B" transform="translate(139,149)"/>
<path d="M0 0 C0.309375 0.639375 0.61875 1.27875 0.9375 1.9375 C1.8345163 3.93610821 1.8345163 3.93610821 3 5 C2.93552434 7.12769662 2.79828808 9.25339183 2.625 11.375 C2.53476562 12.53773438 2.44453125 13.70046875 2.3515625 14.8984375 C2 18 2 18 1 21 C0.34 21 -0.32 21 -1 21 C-1 19.02 -1 17.04 -1 15 C-1.66 15 -2.32 15 -3 15 C-2.5547115 9.72684667 -1.91626837 4.98229776 0 0 Z " fill="#050505" transform="translate(33,122)"/>
<path d="M0 0 C0.37057089 1.32346746 0.69096017 2.66082739 1 4 C1.28875 5.155 1.5775 6.31 1.875 7.5 C1.91625 8.655 1.9575 9.81 2 11 C-0.3125 13.4375 -0.3125 13.4375 -3 15 C-3.66 15 -4.32 15 -5 15 C-5 14.34 -5 13.68 -5 13 C-5.92683594 12.95101562 -6.85367188 12.90203125 -7.80859375 12.8515625 C-9.00613281 12.77679688 -10.20367187 12.70203125 -11.4375 12.625 C-12.63246094 12.55539063 -13.82742187 12.48578125 -15.05859375 12.4140625 C-16.02925781 12.27742188 -16.99992187 12.14078125 -18 12 C-18.33 11.34 -18.66 10.68 -19 10 C-18.02160156 10.03480469 -18.02160156 10.03480469 -17.0234375 10.0703125 C-9.7806748 10.27434328 -9.7806748 10.27434328 -3 8 C-1.59742124 5.61880754 -1.59742124 5.61880754 -1 3 C-0.67 2.01 -0.34 1.02 0 0 Z " fill="#585B5B" transform="translate(114,107)"/>
<path d="M0 0 C2 1 2 1 3 3 C1.35 4.32 -0.3 5.64 -2 7 C-0.06166004 6.91284983 1.8757429 6.80467036 3.8125 6.6875 C4.89144531 6.62949219 5.97039063 6.57148437 7.08203125 6.51171875 C10.25490365 5.95529802 10.96093197 5.34492823 13 3 C15.1875 3.3125 15.1875 3.3125 17 4 C16.360625 4.350625 15.72125 4.70125 15.0625 5.0625 C10.81215656 7.75149279 6.93356077 10.87200505 3 14 C2.67 13.34 2.34 12.68 2 12 C1.34 11.67 0.68 11.34 0 11 C1.65 10.67 3.3 10.34 5 10 C2.03 9.67 -0.94 9.34 -4 9 C-4 8.34 -4 7.68 -4 7 C-4.66 6.67 -5.32 6.34 -6 6 C-4 4 -2 2 0 0 Z " fill="#5E605F" transform="translate(48,63)"/>
<path d="M0 0 C4.61262202 0.52931728 7.84399037 2.12854894 11.8125 4.4375 C11.8125 5.0975 11.8125 5.7575 11.8125 6.4375 C10.4925 6.4375 9.1725 6.4375 7.8125 6.4375 C5.46773449 7.0627708 3.13189207 7.7238409 0.8125 8.4375 C1.1425 7.7775 1.4725 7.1175 1.8125 6.4375 C-0.8275 5.4475 -3.4675 4.4575 -6.1875 3.4375 C-3.1875 0.4375 -3.1875 0.4375 0 0 Z " fill="#9A999C" transform="translate(81.1875,50.5625)"/>
<path d="M0 0 C0 0.66 0 1.32 0 2 C2.97 2.495 2.97 2.495 6 3 C2.66666667 5.66666667 -0.66666667 8.33333333 -4 11 C-4.66 10.67 -5.32 10.34 -6 10 C-5.34 9.34 -4.68 8.68 -4 8 C-6.97 7.505 -6.97 7.505 -10 7 C-9.34 6.01 -8.68 5.02 -8 4 C-7.34 4 -6.68 4 -6 4 C-6 3.34 -6 2.68 -6 2 C-2.25 0 -2.25 0 0 0 Z " fill="#3F4040" transform="translate(85,73)"/>
<path d="M0 0 C-2 2 -2 2 -5 3 C-0.34462607 3.83796731 3.37078475 4.0161692 8 3 C8 2.34 8 1.68 8 1 C8.99 1.33 9.98 1.66 11 2 C4.97693239 7.7611951 -3.90968585 7.20632259 -11.69140625 7.0703125 C-12.45324219 7.04710937 -13.21507813 7.02390625 -14 7 C-13.67 6.34 -13.34 5.68 -13 5 C-10.4375 4.375 -10.4375 4.375 -8 4 C-9.32 3.01 -10.64 2.02 -12 1 C-7.95858806 0.36605303 -4.0934693 -0.12404452 0 0 Z " fill="#595B5D" transform="translate(109,132)"/>
<path d="M0 0 C2 2 2 2 2 5 C2.66 5 3.32 5 4 5 C7.47928514 8.0443745 9.60846256 10.57238086 11 15 C10.01 15 9.02 15 8 15 C7.67 14.67 7.34 14.34 7 14 C7 14.66 7 15.32 7 16 C6.01 16 5.02 16 4 16 C3.67 14.35 3.34 12.7 3 11 C2.01 11.495 2.01 11.495 1 12 C0.03929566 9.11788698 -0.10581883 7.30149956 -0.0625 4.3125 C-0.05347656 3.50425781 -0.04445312 2.69601563 -0.03515625 1.86328125 C-0.02355469 1.24839844 -0.01195312 0.63351563 0 0 Z " fill="#1D1D1D" transform="translate(61,136)"/>
<path d="M0 0 C1.72926874 0.31193464 3.45841044 0.62457362 5.1875 0.9375 C6.15042969 1.11152344 7.11335938 1.28554687 8.10546875 1.46484375 C10.74239972 1.9523735 13.3719905 2.46671105 16 3 C16 3.99 16 4.98 16 6 C12.27412871 7.2419571 8.84033408 7.95634779 5 7 C2.83510514 4.92833028 1.39911975 2.6368026 0 0 Z " fill="#38393A" transform="translate(93,117)"/>
<path d="M0 0 C1.33332095 2.6666419 0.67102033 4.16680303 0 7 C1.65 5.02 3.3 3.04 5 1 C5 4 5 4 4 6.25 C2.77735664 9.61226925 2.86077649 12.44980045 3 16 C2.34 15.67 1.68 15.34 1 15 C0.67 13.68 0.34 12.36 0 11 C-0.33 13.97 -0.66 16.94 -1 20 C-3.97093503 15.54359745 -3.51397346 11.2291213 -3 6 C-1.5 2.3125 -1.5 2.3125 0 0 Z " fill="#5B5F5F" transform="translate(84,92)"/>
<path d="M0 0 C-3 2 -3 2 -5 2 C-5.33 2.99 -5.66 3.98 -6 5 C-12.435 5.495 -12.435 5.495 -19 6 C-18.67 5.34 -18.34 4.68 -18 4 C-17.34 4 -16.68 4 -16 4 C-15.67 3.01 -15.34 2.02 -15 1 C-9.9752761 0.37470103 -5.07471573 -0.13012092 0 0 Z " fill="#121212" transform="translate(64,65)"/>
<path d="M0 0 C0.66 0 1.32 0 2 0 C2.93423645 3.01031744 3.04449911 3.86650268 2 7 C1.34 7 0.68 7 0 7 C-0.33 11.29 -0.66 15.58 -1 20 C-1.66 18.68 -2.32 17.36 -3 16 C-3.33 15.67 -3.66 15.34 -4 15 C-4.5091374 9.7813416 -3.15316248 5.67448227 -1 1 C-0.67 0.67 -0.34 0.34 0 0 Z " fill="#202323" transform="translate(71,86)"/>
<path d="M0 0 C1.31146877 2.62293754 0.78799893 3.54721661 -0.0625 6.3125 C-1.72689928 11.11216305 -3.82703601 13.18778514 -8 16 C-8.33 16 -8.66 16 -9 16 C-9.3125 13.75 -9.3125 13.75 -9 11 C-6.5 8.6875 -6.5 8.6875 -4 7 C-4.33 6.01 -4.66 5.02 -5 4 C-3.35 2.68 -1.7 1.36 0 0 Z " fill="#262828" transform="translate(170,126)"/>
<path d="M0 0 C1.32 0.33 2.64 0.66 4 1 C4.33608711 9.05364285 4.0517291 15.49783264 1 23 C0.67 23 0.34 23 0 23 C0.33 20.36 0.66 17.72 1 15 C0.01 15.66 -0.98 16.32 -2 17 C-1.71125 16.29875 -1.4225 15.5975 -1.125 14.875 C0.02133588 11.94547497 1.02625654 8.99078347 2 6 C1.01 5.01 0.02 4.02 -1 3 C-0.67 2.01 -0.34 1.02 0 0 Z " fill="#575A5A" transform="translate(163,101)"/>
<path d="M0 0 C1.43739513 -0.02712066 2.87493863 -0.04645067 4.3125 -0.0625 C5.51326172 -0.07990234 5.51326172 -0.07990234 6.73828125 -0.09765625 C9 0 9 0 12 1 C11.67 1.99 11.34 2.98 11 4 C5.06 4.33 -0.88 4.66 -7 5 C-3 3 -3 3 0 2 C0 1.34 0 0.68 0 0 Z " fill="#10100F" transform="translate(58,59)"/>
<path d="M0 0 C2.475 0.99 2.475 0.99 5 2 C4.01 2.495 4.01 2.495 3 3 C3.61919078 4.46080933 4.24556692 5.91857455 4.875 7.375 C5.39707031 8.59316406 5.39707031 8.59316406 5.9296875 9.8359375 C6.92446067 12.13802299 6.92446067 12.13802299 9 14 C5.6654742 13.30822192 2.85648807 12.0777496 -0.1875 10.5625 C-1.06792969 10.13066406 -1.94835937 9.69882812 -2.85546875 9.25390625 C-5 8 -5 8 -6 6 C-5.01 5.67 -4.02 5.34 -3 5 C-2.3503125 5.7115625 -2.3503125 5.7115625 -1.6875 6.4375 C0.02309613 8.23686957 0.02309613 8.23686957 3 9 C2.01 6.03 1.02 3.06 0 0 Z " fill="#4D4F50" transform="translate(127,32)"/>
<path d="M0 0 C-0.99 0.33 -1.98 0.66 -3 1 C-3 1.66 -3 2.32 -3 3 C1.62 3.66 6.24 4.32 11 5 C7.91330796 8.08669204 7.08072342 8.44855089 3 9 C2.34 8.01 1.68 7.02 1 6 C-2.86281814 4.01340781 -6.7155798 3.50404943 -11 3 C-7.72430636 -0.27569364 -4.48909309 -0.12469703 0 0 Z " fill="#666669" transform="translate(117,154)"/>
<path d="M0 0 C1.95582488 2.93373731 3.56224304 5.78216298 5 9 C4.67 9.66 4.34 10.32 4 11 C3.01 11 2.02 11 1 11 C0.34 13.64 -0.32 16.28 -1 19 C-2.5 17.625 -2.5 17.625 -4 16 C-4 15.34 -4 14.68 -4 14 C-3.34 14 -2.68 14 -2 14 C-1.34 9.38 -0.68 4.76 0 0 Z " fill="#59595A" transform="translate(36,129)"/>
<path d="M0 0 C0.33 0.66 0.66 1.32 1 2 C-1.60542313 5.32915177 -3.9464094 5.37637068 -8 6 C-9.7015625 6.7425 -9.7015625 6.7425 -11.4375 7.5 C-15.03197783 9.01346435 -18.13746037 9.6058633 -22 10 C-20.625 8.5 -20.625 8.5 -19 7 C-18.34 7 -17.68 7 -17 7 C-16.731875 6.38125 -16.46375 5.7625 -16.1875 5.125 C-15 3 -15 3 -12 1 C-12.33 2.32 -12.66 3.64 -13 5 C-8.31479085 3.78184562 -4.29456388 2.30440013 0 0 Z " fill="#47494A" transform="translate(157,135)"/>
<path d="M0 0 C1.46373047 0.02707031 1.46373047 0.02707031 2.95703125 0.0546875 C3.69308594 0.07789063 4.42914063 0.10109375 5.1875 0.125 C4.8575 0.785 4.5275 1.445 4.1875 2.125 C3.5275 1.795 2.8675 1.465 2.1875 1.125 C2.1875 1.785 2.1875 2.445 2.1875 3.125 C-3.00798425 5.33308081 -6.39514203 5.05902724 -11.8125 4.125 C-10.8125 2.125 -10.8125 2.125 -8.61328125 1.0078125 C-5.57167697 0.04909205 -3.17866882 -0.07659443 0 0 Z " fill="#1D1D1E" transform="translate(114.8125,131.875)"/>
<path d="M0 0 C0.99 0.33 1.98 0.66 3 1 C3.54330269 7.65545792 2.77304004 11.45834744 -1 17 C-2.39543043 14.20913914 -1.90230506 12.15407671 -1.625 9.0625 C-1.53476563 8.00160156 -1.44453125 6.94070312 -1.3515625 5.84765625 C-1 3 -1 3 0 0 Z " fill="#181919" transform="translate(172,97)"/>
<path d="M0 0 C0.99 0.33 1.98 0.66 3 1 C4.8065516 1.40268173 6.62004065 1.77482466 8.4375 2.125 C9.38496094 2.31320313 10.33242187 2.50140625 11.30859375 2.6953125 C13.90852538 2.98964438 15.54483252 2.82419334 18 2 C17.67 2.99 17.34 3.98 17 5 C14.71484375 5.94921875 14.71484375 5.94921875 11.9375 6.6875 C10.55884766 7.06455078 10.55884766 7.06455078 9.15234375 7.44921875 C8.44207031 7.63097656 7.73179688 7.81273437 7 8 C7 8.66 7 9.32 7 10 C6.01 9.67 5.02 9.34 4 9 C5.65 7.35 7.3 5.7 9 4 C5.37 3.67 1.74 3.34 -2 3 C-1.34 2.01 -0.68 1.02 0 0 Z " fill="#636363" transform="translate(61,56)"/>
<path d="M0 0 C0.33 0.99 0.66 1.98 1 3 C1.66 3.33 2.32 3.66 3 4 C2.67 6.97 2.34 9.94 2 13 C1.01 12.67 0.02 12.34 -1 12 C-1.94921875 9.93359375 -1.94921875 9.93359375 -2.6875 7.4375 C-2.93886719 6.61121094 -3.19023438 5.78492188 -3.44921875 4.93359375 C-3.63097656 4.29550781 -3.81273437 3.65742188 -4 3 C-2.68 2.01 -1.36 1.02 0 0 Z " fill="#212222" transform="translate(55,127)"/>
<path d="M0 0 C0 0.99 0 1.98 0 3 C0.99 2.67 1.98 2.34 3 2 C1.62968895 7.65253308 -2.67689413 10.5113541 -7 14 C-7.33 13.01 -7.66 12.02 -8 11 C-6.68 10.01 -5.36 9.02 -4 8 C-4.33 7.01 -4.66 6.02 -5 5 C-3 2 -3 2 0 0 Z " fill="#040505" transform="translate(162,113)"/>
<path d="M0 0 C3.35212973 3.08748791 5.85053527 5.51708756 7 10 C6.625 12.3125 6.625 12.3125 6 14 C4.74335022 11.09399739 4 9.20395416 4 6 C3.34 6 2.68 6 2 6 C1.01 7.485 1.01 7.485 0 9 C-2.66735273 6.51047079 -4.55746343 4.36591866 -6 1 C-5.01 1.33 -4.02 1.66 -3 2 C-3 2.66 -3 3.32 -3 4 C-2.34 4 -1.68 4 -1 4 C-0.67 2.68 -0.34 1.36 0 0 Z " fill="#505254" transform="translate(129,84)"/>
<path d="M0 0 C3.77113919 2.43199997 6.56545408 4.69636225 8 9 C6.53633658 8.60246179 5.0791065 8.18118616 3.625 7.75 C2.40683594 7.40195313 2.40683594 7.40195313 1.1640625 7.046875 C-1.45785454 5.7785108 -1.99382318 4.67576692 -3 2 C-4.98 2.99 -6.96 3.98 -9 5 C-8.625 3.0625 -8.625 3.0625 -8 1 C-5.04206277 -0.47896861 -3.29779776 -0.4355582 0 0 Z " fill="#7B7B7D" transform="translate(105,90)"/>
<path d="M0 0 C2.3125 0.0625 2.3125 0.0625 5 1 C6.88042897 4.50148842 8 7.0080306 8 11 C5.6875 10.5625 5.6875 10.5625 3 9 C1.63924116 6.09244107 0.78637041 3.10712212 0 0 Z " fill="#191A1A" transform="translate(130,35)"/>
<path d="M0 0 C3.32368224 1.10789408 3.61563093 1.48436217 5.25 4.375 C5.60578125 4.98085937 5.9615625 5.58671875 6.328125 6.2109375 C7 8 7 8 6 11 C3.69 11 1.38 11 -1 11 C-1.33 10.01 -1.66 9.02 -2 8 C-1.34 7.01 -0.68 6.02 0 5 C0.33 5.99 0.66 6.98 1 8 C1.66 8 2.32 8 3 8 C2.505 7.05125 2.01 6.1025 1.5 5.125 C0 2 0 2 0 0 Z " fill="#B1B2B5" transform="translate(58,161)"/>
<path d="M0 0 C2.1385485 2.1385485 2.42655063 3.13275314 3 6 C3.33 5.01 3.66 4.02 4 3 C4.66 3.33 5.32 3.66 6 4 C5.55170486 5.98146451 5.09107502 7.96014211 4.625 9.9375 C4.36976563 11.03964844 4.11453125 12.14179687 3.8515625 13.27734375 C3.57054687 14.17582031 3.28953125 15.07429688 3 16 C2.34 16.33 1.68 16.66 1 17 C-0.14806378 5.47835991 -0.14806378 5.47835991 0 0 Z " fill="#9A999D" transform="translate(156,84)"/>
<path d="M0 0 C0.66 0 1.32 0 2 0 C2.09507063 6.43311296 2.15316726 12.65758005 1 19 C0.67 19 0.34 19 0 19 C-0.144375 18.071875 -0.28875 17.14375 -0.4375 16.1875 C-0.92100111 12.99274889 -0.92100111 12.99274889 -2 10 C-2.66 10 -3.32 10 -4 10 C-3.34 8.35 -2.68 6.7 -2 5 C-1.34 5 -0.68 5 0 5 C0 3.35 0 1.7 0 0 Z " fill="#AFADB1" transform="translate(167,91)"/>
<path d="M0 0 C1.98 0 3.96 0 6 0 C5.09232898 1.44319692 4.17343894 2.87934106 3.25 4.3125 C2.73953125 5.11300781 2.2290625 5.91351563 1.703125 6.73828125 C-0.00277761 9.00368861 -1.65808145 10.42684167 -4 12 C-3.45660208 7.43545749 -2.20536179 4.0271824 0 0 Z " fill="#212524" transform="translate(87,88)"/>
<path d="M0 0 C1.98 0 3.96 0 6 0 C6 0.66 6 1.32 6 2 C7.65 2 9.3 2 11 2 C8.64031256 4.09749995 7.45383006 4.96905704 4.25 5.1875 C3.13625 5.0946875 3.13625 5.0946875 2 5 C2 5.99 2 6.98 2 8 C-0.475 7.01 -0.475 7.01 -3 6 C-3 5.34 -3 4.68 -3 4 C-2.01 4 -1.02 4 0 4 C0 2.68 0 1.36 0 0 Z " fill="#9D9BA1" transform="translate(129,163)"/>
<path d="M0 0 C1.44010481 0.25662245 2.8770687 0.53090821 4.3125 0.8125 C5.11300781 0.96332031 5.91351563 1.11414063 6.73828125 1.26953125 C9.23445587 2.07572236 10.32422106 3.02052002 12 5 C8.56484998 5.62457273 5.50935186 6 2 6 C2 5.34 2 4.68 2 4 C1.34 4 0.68 4 0 4 C0 2.68 0 1.36 0 0 Z " fill="#252728" transform="translate(90,132)"/>
<path d="M0 0 C0.33 0.66 0.66 1.32 1 2 C1.66 2 2.32 2 3 2 C5.25684543 7.36000789 6.36263859 11.1977825 6 17 C5.34 16.67 4.68 16.34 4 16 C4 15.34 4 14.68 4 14 C3.34 13.67 2.68 13.34 2 13 C1.3671875 10.05859375 1.3671875 10.05859375 0.875 6.4375 C0.70742187 5.23996094 0.53984375 4.04242188 0.3671875 2.80859375 C0.24601563 1.88175781 0.12484375 0.95492187 0 0 Z " fill="#181C1B" transform="translate(130,88)"/>
<path d="M0 0 C0.99 0.495 0.99 0.495 2 1 C3.74451341 6.52429247 4.20612487 11.22850374 4 17 C1.44335441 14.77682992 0.6063385 13.31154106 0 10 C-0.06624507 8.25113019 -0.08552595 6.49997252 -0.0625 4.75 C-0.05347656 3.85796875 -0.04445312 2.9659375 -0.03515625 2.046875 C-0.02355469 1.37140625 -0.01195312 0.6959375 0 0 Z " fill="#161817" transform="translate(153,60)"/>
<path d="M0 0 C-1.98 0.99 -1.98 0.99 -4 2 C-4 2.33 -4 2.66 -4 3 C-5.44632813 3.30744141 -5.44632813 3.30744141 -6.921875 3.62109375 C-8.18515625 3.89050781 -9.4484375 4.15992188 -10.75 4.4375 C-12.00296875 4.70433594 -13.2559375 4.97117187 -14.546875 5.24609375 C-17.04557085 5.7916235 -19.52553101 6.35638812 -22 7 C-20.6875 5.5 -20.6875 5.5 -19 4 C-18.01 4 -17.02 4 -16 4 C-15.67 3.34 -15.34 2.68 -15 2 C-12.63671875 1.11328125 -12.63671875 1.11328125 -9.6875 0.3125 C-8.72199219 0.04050781 -7.75648437 -0.23148438 -6.76171875 -0.51171875 C-4.04794289 -0.99152353 -2.56334995 -0.90721887 0 0 Z " fill="#747576" transform="translate(100,29)"/>
<path d="M0 0 C0.33 0.99 0.66 1.98 1 3 C-1.58573776 6.23897677 -4.22622856 6.79301935 -8.1875 7.6875 C-9.81751953 8.06455078 -9.81751953 8.06455078 -11.48046875 8.44921875 C-12.31191406 8.63097656 -13.14335937 8.81273437 -14 9 C-13.34 8.01 -12.68 7.02 -12 6 C-11.34 6 -10.68 6 -10 6 C-9.67 4.68 -9.34 3.36 -9 2 C-8.67 2.66 -8.34 3.32 -8 4 C-5.0280615 2.87548273 -2.66559313 1.77706209 0 0 Z " fill="#0F0F0F" transform="translate(160,128)"/>
<path d="M0 0 C1.9375 0.8125 1.9375 0.8125 4 2 C5.03159626 5.09478879 4.97482862 6.52631393 4.5625 9.6875 C4.46066406 10.49574219 4.35882813 11.30398437 4.25390625 12.13671875 C4.17011719 12.75160156 4.08632812 13.36648437 4 14 C1.68540132 12.18182999 1.04622813 11.24384457 0.48828125 8.30078125 C0.43027344 7.31464844 0.37226563 6.32851563 0.3125 5.3125 C0.24675781 4.31863281 0.18101562 3.32476562 0.11328125 2.30078125 C0.07589844 1.54152344 0.03851563 0.78226563 0 0 Z " fill="#303131" transform="translate(143,44)"/>
<path d="M0 0 C0 0.99 0 1.98 0 3 C1.98 2.34 3.96 1.68 6 1 C3.24526918 4.06081203 1.00425951 5.89882863 -3 7 C-5.3125 6.625 -5.3125 6.625 -7 6 C-6.67 5.01 -6.34 4.02 -6 3 C-5.34 3 -4.68 3 -4 3 C-4 2.34 -4 1.68 -4 1 C-2 0 -2 0 0 0 Z " fill="#9A989B" transform="translate(68,42)"/>
<path d="M0 0 C1.32 0 2.64 0 4 0 C3.85904936 1.6254308 3.71207913 3.25034051 3.5625 4.875 C3.48128906 5.77992187 3.40007812 6.68484375 3.31640625 7.6171875 C3 10 3 10 2 12 C1.34 12 0.68 12 0 12 C-0.92844389 7.66726186 -0.92844389 4.33273814 0 0 Z " fill="#202524" transform="translate(115,105)"/>
<path d="M0 0 C0.33 0.66 0.66 1.32 1 2 C0.07421875 4.57421875 0.07421875 4.57421875 -1.3125 7.6875 C-3.22378387 12.09938026 -4.83517149 16.34068596 -6 21 C-6.33 21 -6.66 21 -7 21 C-8.07987542 16.59050872 -8.28503588 14.58025161 -6.25 10.4375 C-5.50174752 9.29052474 -4.75176618 8.14467534 -4 7 C-3.1646875 5.329375 -3.1646875 5.329375 -2.3125 3.625 C-1 1 -1 1 0 0 Z " fill="#918F98" transform="translate(40,90)"/>
<path d="M0 0 C3 2 3 2 3.51171875 3.9453125 C3.67447917 5.96354167 3.83723958 7.98177083 4 10 C2.68 10.33 1.36 10.66 0 11 C-1.5625 8.625 -1.5625 8.625 -3 6 C-2.67 5.34 -2.34 4.68 -2 4 C-1.67 4.33 -1.34 4.66 -1 5 C-0.67 3.35 -0.34 1.7 0 0 Z " fill="#8A8B8F" transform="translate(53,159)"/>
<path d="M0 0 C1 3 1 3 0.109375 5.04296875 C-0.33921875 5.75066406 -0.7878125 6.45835937 -1.25 7.1875 C-1.68828125 7.90292969 -2.1265625 8.61835938 -2.578125 9.35546875 C-3.04734375 9.89816406 -3.5165625 10.44085938 -4 11 C-4.99 11 -5.98 11 -7 11 C-6.34 10.34 -5.68 9.68 -5 9 C-5.66 8.34 -6.32 7.68 -7 7 C-6.625 4.375 -6.625 4.375 -6 2 C-5.34 2.66 -4.68 3.32 -4 4 C-2.68 2.68 -1.36 1.36 0 0 Z " fill="#747779" transform="translate(166,137)"/>
<path d="M0 0 C0.33 0 0.66 0 1 0 C2.7479503 5.24385089 3.19392201 9.47322267 3 15 C0.36610401 12.79092594 -0.88242848 11.39470439 -1.875 8.0625 C-2.00886342 4.7828463 -1.45481436 2.90962871 0 0 Z " fill="#1C1E1F" transform="translate(84,101)"/>
<path d="M0 0 C0.66 0.33 1.32 0.66 2 1 C1.67 1.99 1.34 2.98 1 4 C-2.37817425 4.84454356 -4.67465243 5.10844919 -8 4 C-7.625 2.0625 -7.625 2.0625 -7 0 C-4.30919898 -1.34540051 -2.86443593 -0.71610898 0 0 Z " fill="#2E3232" transform="translate(105,84)"/>
<path d="M0 0 C-0.33 0.99 -0.66 1.98 -1 3 C-1.969375 3.12375 -2.93875 3.2475 -3.9375 3.375 C-4.948125 3.58125 -5.95875 3.7875 -7 4 C-7.33 4.66 -7.66 5.32 -8 6 C-9.98 5.34 -11.96 4.68 -14 4 C-14 3.34 -14 2.68 -14 2 C-9.07262981 0.02905192 -5.21979128 -0.1799928 0 0 Z " fill="#191A1B" transform="translate(99,71)"/>
<path d="M0 0 C2.32472205 2.85306797 3.7508258 5.54074837 5 9 C3.68 8.67 2.36 8.34 1 8 C1.57584432 10.38564077 2.22227595 12.66682784 3 15 C2.34 15 1.68 15 1 15 C-1.9731153 10.62777162 -1.9731153 10.62777162 -3 8 C-2.36635426 4.94697959 -1.3789013 2.7578026 0 0 Z " fill="#6D6D70" transform="translate(72,110)"/>
<path d="M0 0 C0.33 0 0.66 0 1 0 C1.05390357 2.93774463 1.0936255 5.87450232 1.125 8.8125 C1.14175781 9.64587891 1.15851563 10.47925781 1.17578125 11.33789062 C1.18222656 12.14033203 1.18867188 12.94277344 1.1953125 13.76953125 C1.20578613 14.50792236 1.21625977 15.24631348 1.22705078 16.00708008 C1 18 1 18 -1 21 C-1.33 19.35 -1.66 17.7 -2 16 C-2.66 16.66 -3.32 17.32 -4 18 C-3.58315135 15.49890807 -3.19940269 13.37388004 -2 11.125 C-0.88513069 8.75590271 -0.60432647 6.84903331 -0.375 4.25 C-0.30023438 3.45078125 -0.22546875 2.6515625 -0.1484375 1.828125 C-0.09945312 1.22484375 -0.05046875 0.6215625 0 0 Z " fill="#676A6B" transform="translate(175,98)"/>
<path d="M0 0 C0.33 0 0.66 0 1 0 C1.30183964 4.29724332 0.31619113 7.25279232 -1.375 11.1875 C-1.81585937 12.23292969 -2.25671875 13.27835938 -2.7109375 14.35546875 C-4 17 -4 17 -6 19 C-7.25512743 15.41294184 -7.01900739 14.04707824 -5.56640625 10.44921875 C-4.91261433 9.18786263 -4.24416656 7.93401267 -3.5625 6.6875 C-3.22412109 6.04232422 -2.88574219 5.39714844 -2.53710938 4.73242188 C-1.70396705 3.14827802 -0.85365096 1.57318718 0 0 Z " fill="#040404" transform="translate(32,106)"/>
<path d="M0 0 C3.14299094 2.33709583 4.75393246 3.67639476 5.484375 7.60546875 C5.61697413 9.49500631 5.71118968 11.38773963 5.76171875 13.28125 C6.01667635 16.19027442 6.79700209 18.35436316 8 21 C6.62437146 19.71034824 5.29233607 18.37310707 4 17 C4 16.34 4 15.68 4 15 C3.34 15 2.68 15 2 15 C2.04125 13.824375 2.0825 12.64875 2.125 11.4375 C2.13983635 7.27590326 1.31170778 3.93512333 0 0 Z " fill="#747577" transform="translate(139,39)"/>
<path d="M0 0 C3.91402949 1.26941497 5.79072873 2.51167694 8 6 C6.25 6.6875 6.25 6.6875 4 7 C2.64082143 6.03542166 1.30915279 5.03145371 0 4 C-2.64934822 3.28566879 -2.64934822 3.28566879 -5 3 C-4.360625 2.690625 -3.72125 2.38125 -3.0625 2.0625 C-1.06389179 1.1654837 -1.06389179 1.1654837 0 0 Z " fill="#111112" transform="translate(108,28)"/>
<path d="M0 0 C6.43681228 0.51085812 11.95942424 1.72942897 18 4 C15 6 15 6 12.1875 5.64453125 C11.135625 5.36996094 10.08375 5.09539062 9 4.8125 C7.948125 4.55082031 6.89625 4.28914062 5.8125 4.01953125 C3.06915334 3.02506809 1.81110701 2.23244093 0 0 Z " fill="#090A09" transform="translate(104,156)"/>
<path d="M0 0 C0 0.66 0 1.32 0 2 C-0.86625 2.268125 -1.7325 2.53625 -2.625 2.8125 C-6.00008954 3.88926935 -6.00008954 3.88926935 -8.875 5.625 C-12.88958411 7.39141701 -15.6483654 7.22508455 -20 7 C-17.69770126 4.69770126 -16.28931803 4.35567394 -13.1875 3.5 C-10.39423154 2.70709815 -7.75776791 1.90207639 -5.0625 0.8125 C-3 0 -3 0 0 0 Z " fill="#0A0B0B" transform="translate(155,139)"/>
<path d="M0 0 C0.69480469 0.28617188 1.38960938 0.57234375 2.10546875 0.8671875 C5.1464265 2.05730592 8.21132475 3.10263453 11.3125 4.125 C12.38113281 4.47820312 13.44976562 4.83140625 14.55078125 5.1953125 C15.35902344 5.46085938 16.16726562 5.72640625 17 6 C17 6.66 17 7.32 17 8 C14.36 8.66 11.72 9.32 9 10 C9 9.34 9 8.68 9 8 C10.32 8 11.64 8 13 8 C13 7.34 13 6.68 13 6 C12.39671875 5.87882813 11.7934375 5.75765625 11.171875 5.6328125 C10.37265625 5.46523437 9.5734375 5.29765625 8.75 5.125 C7.96109375 4.96257812 7.1721875 4.80015625 6.359375 4.6328125 C4.03168856 4.00849925 2.10968048 3.15161458 0 2 C0 1.34 0 0.68 0 0 Z " fill="#747678" transform="translate(102,156)"/>
<path d="M0 0 C4.8991349 1.29977048 9.37559575 2.92373687 14 5 C10.23375329 6.25541557 8.62811066 5.37061958 5 4 C7.475 7.465 7.475 7.465 10 11 C6.31353859 9.54144353 4.83856029 7.69770955 2.75 4.375 C1.96882813 3.14910156 1.96882813 3.14910156 1.171875 1.8984375 C0.78515625 1.27195313 0.3984375 0.64546875 0 0 Z " fill="#767878" transform="translate(75,149)"/>
<path d="M0 0 C1.33333333 0 2.66666667 0 4 0 C4 1.65 4 3.3 4 5 C3.01 5.495 3.01 5.495 2 6 C1.95745644 7.99954746 1.95919217 10.00041636 2 12 C2.33 12.33 2.66 12.66 3 13 C3.04080783 14.99958364 3.04254356 17.00045254 3 19 C0.96617026 15.94925539 0.45832799 14.1697702 -0.1875 10.625 C-0.45626953 9.22121094 -0.45626953 9.22121094 -0.73046875 7.7890625 C-1.00640181 4.93375519 -0.70874061 2.76459104 0 0 Z " fill="#65666A" transform="translate(48,112)"/>
<path d="M0 0 C0.66 0.33 1.32 0.66 2 1 C-0.54230835 5.74564226 -5.16150979 7.27393518 -10 9 C-10.66 9 -11.32 9 -12 9 C-10.53751886 5.11943925 -8.68145519 3.95866522 -5 2.1875 C-4.113125 1.74792969 -3.22625 1.30835937 -2.3125 0.85546875 C-1.1678125 0.43201172 -1.1678125 0.43201172 0 0 Z " fill="#070808" transform="translate(39,89)"/>
<path d="M0 0 C2.31 0.66 4.62 1.32 7 2 C6.01 2.495 6.01 2.495 5 3 C5 3.66 5 4.32 5 5 C5.66 5 6.32 5 7 5 C7 6.65 7 8.3 7 10 C2.545 8.02 2.545 8.02 -2 6 C-0.68 5.34 0.64 4.68 2 4 C2.33 3.34 2.66 2.68 3 2 C2.01 1.67 1.02 1.34 0 1 C0 0.67 0 0.34 0 0 Z " fill="#626666" transform="translate(104,83)"/>
<path d="M0 0 C0.33 0 0.66 0 1 0 C1.125 6.75 1.125 6.75 0 9 C0.66 9 1.32 9 2 9 C2.33 8.34 2.66 7.68 3 7 C3.33 8.65 3.66 10.3 4 12 C3.34 12 2.68 12 2 12 C1.67 13.32 1.34 14.64 1 16 C0.67 16 0.34 16 0 16 C-2.01193027 9.74066138 -2.01193027 6.25933862 0 0 Z " fill="#2D2F32" transform="translate(158,75)"/>
<path d="M0 0 C3.08028948 2.77226053 4.83016411 5.00306072 6 9 C6.125 11.8125 6.125 11.8125 6 14 C1.5885273 10.76492002 1.15305442 7.15442808 0.296875 2.046875 C0.19890625 1.37140625 0.1009375 0.6959375 0 0 Z " fill="#0D0E0E" transform="translate(47,151)"/>
<path d="M0 0 C3.42958438 1.41785848 5.02393304 3.03190342 7.125 6.0625 C9.11074647 9.04627522 9.11074647 9.04627522 12 11 C12 11.66 12 12.32 12 13 C9.5625 12.1875 9.5625 12.1875 7 11 C6.67 10.01 6.34 9.02 6 8 C5.34 8 4.68 8 4 8 C0 2.58823529 0 2.58823529 0 0 Z " fill="#0A0A0A" transform="translate(73,149)"/>
<path d="M0 0 C2.3913337 1.77421533 3.82249011 3.16600958 4.453125 6.12890625 C4.60615583 7.67706814 4.73114989 9.22832957 4.82421875 10.78125 C4.99651809 12.95605058 5.41376557 14.90290124 6 17 C4.0625 16.625 4.0625 16.625 2 16 C1.67 15.34 1.34 14.68 1 14 C1.66 14 2.32 14 3 14 C2.7834375 13.15695313 2.566875 12.31390625 2.34375 11.4453125 C2.0653125 10.34960938 1.786875 9.25390625 1.5 8.125 C1.2215625 7.03445312 0.943125 5.94390625 0.65625 4.8203125 C0 2 0 2 0 0 Z " fill="#6A6A6C" transform="translate(44,146)"/>
<path d="M0 0 C2.0625 1.6875 2.0625 1.6875 4 4 C3.75 6.75 3.75 6.75 3 9 C0.625 8.8125 0.625 8.8125 -2 8 C-3.3125 5.4375 -3.3125 5.4375 -4 3 C-3.01 3.99 -2.02 4.98 -1 6 C-0.67 4.02 -0.34 2.04 0 0 Z " fill="#56595B" transform="translate(87,109)"/>
<path d="M0 0 C0.99 0 1.98 0 3 0 C2.67 0.99 2.34 1.98 2 3 C2.66 3.33 3.32 3.66 4 4 C3.71125 4.556875 3.4225 5.11375 3.125 5.6875 C1.9586747 8.08494645 0.9660119 10.51596939 0 13 C-0.66 13 -1.32 13 -2 13 C-2.23509196 8.18061476 -1.45184478 4.53701494 0 0 Z " fill="#131515" transform="translate(132,107)"/>
<path d="M0 0 C1.16515782 3.49547347 0.74739633 5.51562202 0.15625 9.0625 C-0.14481293 11.21800052 -0.14481293 11.21800052 1 14 C0.0625 17.1875 0.0625 17.1875 -1 20 C-1.33 20 -1.66 20 -2 20 C-3.31191816 12.57106587 -2.65494169 7.04984516 0 0 Z " fill="#626565" transform="translate(68,88)"/>
<path d="M0 0 C0.66 0.66 1.32 1.32 2 2 C3.64991582 2.70710678 5.31562256 3.37943989 7 4 C6.67 5.98 6.34 7.96 6 10 C4 10 4 10 2.4375 8.9375 C0.35943153 6.13662511 0.32189473 3.41208416 0 0 Z " fill="#262829" transform="translate(122,78)"/>
<path d="M0 0 C-0.66 0 -1.32 0 -2 0 C-2.33 0.99 -2.66 1.98 -3 3 C-4.92578125 4.45703125 -4.92578125 4.45703125 -7.3125 5.8125 C-8.48232422 6.50279297 -8.48232422 6.50279297 -9.67578125 7.20703125 C-12 8 -12 8 -14.29296875 7.13671875 C-14.85628906 6.76160156 -15.41960937 6.38648438 -16 6 C-12.25 4.875 -12.25 4.875 -10 6 C-10 5.34 -10 4.68 -10 4 C-9.34 4 -8.68 4 -8 4 C-8 3.34 -8 2.68 -8 2 C-3.61016949 -1.20338983 -3.61016949 -1.20338983 0 0 Z " fill="#757778" transform="translate(148,148)"/>
<path d="M0 0 C0.66 1.32 1.32 2.64 2 4 C0.5629191 4.05422947 -0.87475462 4.09289723 -2.3125 4.125 C-3.11300781 4.14820313 -3.91351563 4.17140625 -4.73828125 4.1953125 C-7 4 -7 4 -10 2 C-6.3558226 -0.4294516 -4.28758728 -0.16179575 0 0 Z " fill="#666769" transform="translate(85,51)"/>
<path d="M0 0 C0.99 0.33 1.98 0.66 3 1 C1.68 1.99 0.36 2.98 -1 4 C1.31 4.33 3.62 4.66 6 5 C6 5.33 6 5.66 6 6 C-1.92 6.495 -1.92 6.495 -10 7 C-3.33333333 1.66666667 -3.33333333 1.66666667 0 0 Z " fill="#6E7070" transform="translate(132,145)"/>
<path d="M0 0 C2.62451617 2.62451617 2.5832868 4.4877828 3.125 8.125 C3.29257812 9.22070312 3.46015625 10.31640625 3.6328125 11.4453125 C3.75398438 12.28835937 3.87515625 13.13140625 4 14 C3.34 14 2.68 14 2 14 C-0.28062828 10.57905758 -0.21925007 9.31812778 -0.125 5.3125 C-0.10695312 4.31863281 -0.08890625 3.32476562 -0.0703125 2.30078125 C-0.04710937 1.54152344 -0.02390625 0.78226563 0 0 Z " fill="#060606" transform="translate(43,146)"/>
<path d="M0 0 C1.2380014 3.57644848 0.74926071 6.33694766 0 10 C0.66 10 1.32 10 2 10 C2 11.98 2 13.96 2 16 C1.67 15.01 1.34 14.02 1 13 C0.34 13 -0.32 13 -1 13 C-3.21052632 5.63157895 -3.21052632 5.63157895 -2.1875 2.5625 C-1 1 -1 1 0 0 Z " fill="#6B6B6B" transform="translate(30,127)"/>
<path d="M0 0 C0.99 0 1.98 0 3 0 C3.6496875 1.175625 3.6496875 1.175625 4.3125 2.375 C6.4544757 5.7069622 8.23880207 6.08059606 12 7 C11.01 7.33 10.02 7.66 9 8 C9 8.66 9 9.32 9 10 C5.19510255 8.50521886 3.33809165 6.30557786 1 3 C0.67 2.01 0.34 1.02 0 0 Z " fill="#8D8E8E" transform="translate(87,102)"/>
<path d="M0 0 C0.99 0.66 1.98 1.32 3 2 C3 2.66 3 3.32 3 4 C2.236875 4.268125 1.47375 4.53625 0.6875 4.8125 C-1.87380884 5.94424112 -3.19692938 6.91223401 -5 9 C-5.33 7.68 -5.66 6.36 -6 5 C-4.02 3.35 -2.04 1.7 0 0 Z " fill="#3E403F" transform="translate(101,91)"/>
<path d="M0 0 C2.475 0.99 2.475 0.99 5 2 C2.4362736 4.5637264 0.52588314 5.18633466 -3 6 C-6.375 5.125 -6.375 5.125 -9 4 C-6.03312999 2.35173889 -3.34373475 1.55728913 0 1 C0 0.67 0 0.34 0 0 Z " fill="#121213" transform="translate(95,30)"/>
<path d="M0 0 C3.5874696 2.6906022 6.27142941 5.45285824 9 9 C9.98230498 10.0173873 10.97469597 11.02596117 12 12 C8.64630514 11.40112592 6.53881228 10.27617653 4 8 C3.67 7.01 3.34 6.02 3 5 C2.34 5 1.68 5 1 5 C0.67 3.35 0.34 1.7 0 0 Z " fill="#6D6E6E" transform="translate(62,136)"/>
<path d="M0 0 C4.455 0.99 4.455 0.99 9 2 C9 3.32 9 4.64 9 6 C7.68 6.33 6.36 6.66 5 7 C3.35 4.69 1.7 2.38 0 0 Z " fill="#1F2121" transform="translate(93,117)"/>
<path d="M0 0 C0.75 1.5625 0.75 1.5625 1 4 C-0.13084437 6.50286409 -1.52139516 8.67007722 -3 11 C-3.33 10.34 -3.66 9.68 -4 9 C-4.66 8.67 -5.32 8.34 -6 8 C-5.01 7.67 -4.02 7.34 -3 7 C-2.87625 6.21625 -2.7525 5.4325 -2.625 4.625 C-2 2 -2 2 0 0 Z " fill="#4B4E4F" transform="translate(135,113)"/>
<path d="M0 0 C0.66 0 1.32 0 2 0 C1.6875 2.375 1.6875 2.375 1 5 C-2 7 -2 7 -4.6875 6.625 C-5.450625 6.41875 -6.21375 6.2125 -7 6 C-7 5.34 -7 4.68 -7 4 C-3.535 3.505 -3.535 3.505 0 3 C0 2.01 0 1.02 0 0 Z " fill="#3C3C3D" transform="translate(103,106)"/>
<path d="M0 0 C5.875 3.75 5.875 3.75 7 6 C5.68 5.67 4.36 5.34 3 5 C3 6.65 3 8.3 3 10 C1.68 8.68 0.36 7.36 -1 6 C-0.34 6 0.32 6 1 6 C0.67 4.02 0.34 2.04 0 0 Z " fill="#57595B" transform="translate(120,75)"/>
<path d="M0 0 C4.455 0.99 4.455 0.99 9 2 C8.01 3.485 8.01 3.485 7 5 C5.3733152 4.71788123 3.74867104 4.42397625 2.125 4.125 C0.76761719 3.88136719 0.76761719 3.88136719 -0.6171875 3.6328125 C-3 3 -3 3 -5 1 C-2.69 1.33 -0.38 1.66 2 2 C1.34 1.34 0.68 0.68 0 0 Z " fill="#131313" transform="translate(75,54)"/>
<path d="M0 0 C3.43950364 0.61198376 5.51564485 1.92058847 8.25 4.0625 C8.95640625 4.61035156 9.6628125 5.15820312 10.390625 5.72265625 C11.18726562 6.35494141 11.18726562 6.35494141 12 7 C10.265625 7.7109375 10.265625 7.7109375 8 8 C5.859375 6.6015625 5.859375 6.6015625 3.75 4.625 C3.04359375 3.97789062 2.3371875 3.33078125 1.609375 2.6640625 C0 1 0 1 0 0 Z " fill="#060707" transform="translate(87,156)"/>
<path d="M0 0 C2.93879484 1.35236577 5.29232911 2.89942659 7.75 5 C8.67039062 5.7734375 8.67039062 5.7734375 9.609375 6.5625 C11 8 11 8 11 10 C5.78172467 8.61869182 3.07338663 5.21402497 0 1 C0 0.67 0 0.34 0 0 Z " fill="#080909" transform="translate(79,152)"/>
<path d="M0 0 C1.32 0.99 2.64 1.98 4 3 C2.68 4.65 1.36 6.3 0 8 C-1.32 7.67 -2.64 7.34 -4 7 C-2.68 4.69 -1.36 2.38 0 0 Z " fill="#5A5D5F" transform="translate(158,143)"/>
<path d="M0 0 C3 0 3 0 5 1 C5.1875 3.875 5.1875 3.875 5 7 C4.01 7.66 3.02 8.32 2 9 C1.34 6.03 0.68 3.06 0 0 Z " fill="#1D2121" transform="translate(114,94)"/>
<path d="M0 0 C1.65 0.33 3.3 0.66 5 1 C5 1.99 5 2.98 5 4 C4.01 4 3.02 4 2 4 C2 5.65 2 7.3 2 9 C0.4375 7.3125 0.4375 7.3125 -1 5 C-0.6875 2.25 -0.6875 2.25 0 0 Z " fill="#575B5C" transform="translate(113,91)"/>
<path d="M0 0 C0 0.99 0 1.98 0 3 C0.556875 2.855625 1.11375 2.71125 1.6875 2.5625 C4.11384195 1.97230872 6.54906345 1.476571 9 1 C6.6975881 3.60045875 4.50103323 4.84739183 1.3125 6.1875 C0.50425781 6.53167969 -0.30398437 6.87585938 -1.13671875 7.23046875 C-1.75160156 7.48441406 -2.36648437 7.73835938 -3 8 C-2.25 2.25 -2.25 2.25 0 0 Z " fill="#5B5E5F" transform="translate(30,88)"/>
<path d="M0 0 C3 1 3 1 6 3 C4.25 7.875 4.25 7.875 2 9 C2 7.02 2 5.04 2 3 C0.02 3.99 0.02 3.99 -2 5 C-1.34 3.35 -0.68 1.7 0 0 Z " fill="#515354" transform="translate(71,83)"/>
<path d="M0 0 C3.3125 -0.25 3.3125 -0.25 7 0 C8.9375 2 8.9375 2 10 4 C8.54207116 4.05399736 7.08357288 4.09279177 5.625 4.125 C4.81289062 4.14820313 4.00078125 4.17140625 3.1640625 4.1953125 C1 4 1 4 -1 2 C-0.67 1.34 -0.34 0.68 0 0 Z " fill="#818284" transform="translate(111,34)"/>
<path d="M0 0 C3.27286682 2.7819368 4.96427697 6.27954067 7 10 C6.01 10.495 6.01 10.495 5 11 C5 10.34 5 9.68 5 9 C4.38125 8.731875 3.7625 8.46375 3.125 8.1875 C1 7 1 7 -1 4 C-0.34 4 0.32 4 1 4 C0.67 2.68 0.34 1.36 0 0 Z " fill="#535355" transform="translate(67,148)"/>
<path d="M0 0 C0.33 0 0.66 0 1 0 C1.06058594 0.84304687 1.12117188 1.68609375 1.18359375 2.5546875 C1.26738281 3.65039062 1.35117187 4.74609375 1.4375 5.875 C1.51871094 6.96554688 1.59992187 8.05609375 1.68359375 9.1796875 C1.83001703 11.94728971 1.83001703 11.94728971 3 14 C2.01 13.67 1.02 13.34 0 13 C0 12.34 0 11.68 0 11 C-0.66 11 -1.32 11 -2 11 C-1.85892253 9.54119891 -1.71197585 8.08296449 -1.5625 6.625 C-1.48128906 5.81289062 -1.40007813 5.00078125 -1.31640625 4.1640625 C-1 2 -1 2 0 0 Z " fill="#5C5D5D" transform="translate(42,145)"/>
<path d="M0 0 C0.0825 0.61875 0.165 1.2375 0.25 1.875 C0.81258459 4.18437567 0.81258459 4.18437567 3.0625 5.25 C3.701875 5.4975 4.34125 5.745 5 6 C4.67 7.98 4.34 9.96 4 12 C2 10.5 2 10.5 0 8 C-0.35800135 5.24128373 -0.18660165 2.79902476 0 0 Z " fill="#171918" transform="translate(72,113)"/>
<path d="M0 0 C1.485 0.99 1.485 0.99 3 2 C2.67 4.31 2.34 6.62 2 9 C1.01 9 0.02 9 -1 9 C-1.09765625 2.84765625 -1.09765625 2.84765625 -1 1 C-0.67 0.67 -0.34 0.34 0 0 Z " fill="#242626" transform="translate(163,103)"/>
<path d="M0 0 C4.571279 0.54855348 8.67435795 1.41744803 13 3 C13 3.33 13 3.66 13 4 C11.3954444 3.85851011 9.79136233 3.71164314 8.1875 3.5625 C7.29417969 3.48128906 6.40085937 3.40007812 5.48046875 3.31640625 C3 3 3 3 0 2 C0 1.34 0 0.68 0 0 Z " fill="#0B0C0C" transform="translate(114,155)"/>
<path d="M0 0 C-1.32 1.32 -2.64 2.64 -4 4 C-4 3.34 -4 2.68 -4 2 C-5.36125 2.7734375 -5.36125 2.7734375 -6.75 3.5625 C-10.16419665 5.07262544 -10.68604014 5.08784335 -14 4 C-12.42466914 3.13116294 -10.83935491 2.28040932 -9.25 1.4375 C-8.36828125 0.96183594 -7.4865625 0.48617187 -6.578125 -0.00390625 C-3.79298812 -1.07998186 -2.73019786 -1.06528748 0 0 Z " fill="#595D5E" transform="translate(154,142)"/>
<path d="M0 0 C1.45047396 2.90094791 0.45356803 4.55972596 -0.4375 7.625 C-0.86869141 9.12933594 -0.86869141 9.12933594 -1.30859375 10.6640625 C-1.53675781 11.43492187 -1.76492187 12.20578125 -2 13 C-2.66 12.67 -3.32 12.34 -4 12 C-3.5317879 7.22423661 -2.75668002 3.95523655 0 0 Z " fill="#070707" transform="translate(31,120)"/>
<path d="M0 0 C1.28497537 3.85492611 0.4052209 5.40346836 -0.9375 9.1875 C-1.31777344 10.27417969 -1.69804687 11.36085938 -2.08984375 12.48046875 C-2.39019531 13.31191406 -2.69054687 14.14335937 -3 15 C-5.03125 11.2578125 -5.03125 11.2578125 -4.75 8.9375 C-4 7 -4 7 -2 4 C-1.31822584 2.67432801 -0.64808564 1.34246312 0 0 Z " fill="#5E5E5F" transform="translate(30,116)"/>
<path d="M0 0 C-0.33 0.99 -0.66 1.98 -1 3 C-3.72265625 3.94921875 -3.72265625 3.94921875 -7.0625 4.6875 C-8.71958984 5.06455078 -8.71958984 5.06455078 -10.41015625 5.44921875 C-11.69212891 5.72185547 -11.69212891 5.72185547 -13 6 C-10.78511966 2.67767949 -10.13888343 2.4289756 -6.5 1.3125 C-5.7059375 1.06113281 -4.911875 0.80976562 -4.09375 0.55078125 C-2 0 -2 0 0 0 Z " fill="#030303" transform="translate(50,75)"/>
<path d="M0 0 C0.99 0.33 1.98 0.66 3 1 C2.34 1 1.68 1 1 1 C1.33 1.99 1.66 2.98 2 4 C1.67 4.66 1.34 5.32 1 6 C-4.94 5.01 -4.94 5.01 -11 4 C-11 3.67 -11 3.34 -11 3 C-3.375 1.75 -3.375 1.75 0 4 C0 2.68 0 1.36 0 0 Z " fill="#565759" transform="translate(112,71)"/>
<path d="M0 0 C0.33 0 0.66 0 1 0 C1.125 7.75 1.125 7.75 0 10 C-0.66 10 -1.32 10 -2 10 C-2.25 3.375 -2.25 3.375 0 0 Z " fill="#060706" transform="translate(37,139)"/>
<path d="M0 0 C1.99097846 2.98646769 2.94124926 5.59687262 4 9 C3.34 9 2.68 9 2 9 C1.67 8.34 1.34 7.68 1 7 C0.34 7.66 -0.32 8.32 -1 9 C-2.25541557 5.23375329 -1.37061958 3.62811066 0 0 Z " fill="#4A4B4C" transform="translate(54,121)"/>
<path d="M0 0 C-0.33 0.99 -0.66 1.98 -1 3 C-3.8125 4.0625 -3.8125 4.0625 -7 5 C-8.34721283 5.63815344 -9.68747118 6.29325371 -11 7 C-11 5.35 -11 3.7 -11 2 C-10.67 2.66 -10.34 3.32 -10 4 C-9.16855469 3.566875 -9.16855469 3.566875 -8.3203125 3.125 C-7.23363281 2.568125 -7.23363281 2.568125 -6.125 2 C-5.40570312 1.62875 -4.68640625 1.2575 -3.9453125 0.875 C-2 0 -2 0 0 0 Z " fill="#474949" transform="translate(37,94)"/>
<path d="M0 0 C0.66 0 1.32 0 2 0 C2 0.66 2 1.32 2 2 C4.31 2 6.62 2 9 2 C7.35 3.65 5.7 5.3 4 7 C3.34 6.67 2.68 6.34 2 6 C2.66 5.34 3.32 4.68 4 4 C1.03 3.505 1.03 3.505 -2 3 C-1.34 2.01 -0.68 1.02 0 0 Z " fill="#747573" transform="translate(77,77)"/>
<path d="M0 0 C2.39273706 1.28182342 4.68740775 2.59280943 7 4 C7.66 4.33 8.32 4.66 9 5 C9 5.66 9 6.32 9 7 C5.32553433 6.29337199 2.26087791 4.81159884 -1 3 C-1.33 2.34 -1.66 1.68 -2 1 C-1.34 0.67 -0.68 0.34 0 0 Z " fill="#8A8B8E" transform="translate(123,37)"/>
<path d="M0 0 C0.33 0.66 0.66 1.32 1 2 C0.505 2.61875 0.01 3.2375 -0.5 3.875 C-2.19222773 5.83880904 -2.19222773 5.83880904 -2 8 C-4.31 8.33 -6.62 8.66 -9 9 C-7.625 7.5 -7.625 7.5 -6 6 C-5.34 6 -4.68 6 -4 6 C-3.71125 5.38125 -3.4225 4.7625 -3.125 4.125 C-2 2 -2 2 0 0 Z " fill="#6A6A6A" transform="translate(144,136)"/>
<path d="M0 0 C0.33 0.66 0.66 1.32 1 2 C1.66 2.33 2.32 2.66 3 3 C2.01 3.495 2.01 3.495 1 4 C1 4.66 1 5.32 1 6 C1.66 6.33 2.32 6.66 3 7 C1.02 7.99 -0.96 8.98 -3 10 C-2.21302675 6.58978257 -1.12880057 3.31114834 0 0 Z " fill="#6F7475" transform="translate(165,126)"/>
<path d="M0 0 C1.32 1.32 2.64 2.64 4 4 C3.34 4 2.68 4 2 4 C1.67 5.65 1.34 7.3 1 9 C0.01 8.67 -0.98 8.34 -2 8 C-1.34 5.36 -0.68 2.72 0 0 Z " fill="#5E6161" transform="translate(77,119)"/>
<path d="M0 0 C-0.556875 0.268125 -1.11375 0.53625 -1.6875 0.8125 C-4.08933398 2.00699665 -4.08933398 2.00699665 -6.625 3.625 C-9 5 -9 5 -11 5 C-10.6875 3.0625 -10.6875 3.0625 -10 1 C-6.52674819 -0.1577506 -3.63932552 -0.06866652 0 0 Z " fill="#727676" transform="translate(101,88)"/>
<path d="M0 0 C3.8992823 0.57767145 6.04335873 2.48685492 9 5 C10.32901064 6.00573778 11.66073801 7.00795408 13 8 C7.63951758 7.66496985 3.90710652 4.4126588 0 1 C0 0.67 0 0.34 0 0 Z " fill="#060606" transform="translate(92,156)"/>
<path d="M0 0 C-2.543667 2.543667 -4.50099979 3.23021995 -8 4 C-10.375 2.625 -10.375 2.625 -12 1 C-7.95858806 0.36605303 -4.0934693 -0.12404452 0 0 Z " fill="#5F6263" transform="translate(109,132)"/>
<path d="M0 0 C0.33 0 0.66 0 1 0 C1.3125 3.1875 1.3125 3.1875 1 7 C-1.5 9.9375 -1.5 9.9375 -4 12 C-3.52309796 10.37433394 -3.04340334 8.74948689 -2.5625 7.125 C-2.29566406 6.22007813 -2.02882812 5.31515625 -1.75390625 4.3828125 C-1 2 -1 2 0 0 Z " fill="#171918" transform="translate(173,112)"/>
<path d="M0 0 C0.99 0.33 1.98 0.66 3 1 C3 3.31 3 5.62 3 8 C2.67 7.01 2.34 6.02 2 5 C1.34 5 0.68 5 0 5 C-0.33 5.99 -0.66 6.98 -1 8 C-0.67 5.36 -0.34 2.72 0 0 Z " fill="#2E3030" transform="translate(172,97)"/>
<path d="M0 0 C4.54805635 -0.17835515 7.8794254 0.00214565 12 2 C11.34 3.32 10.68 4.64 10 6 C9.34 4.68 8.68 3.36 8 2 C7.05125 2.04125 6.1025 2.0825 5.125 2.125 C2 2 2 2 0 0 Z " fill="#626465" transform="translate(110,28)"/>
<path d="M0 0 C0.33 0 0.66 0 1 0 C1 4.29 1 8.58 1 13 C0.01 13 -0.98 13 -2 13 C-2.33 11.68 -2.66 10.36 -3 9 C-2.34 9 -1.68 9 -1 9 C-0.67 6.03 -0.34 3.06 0 0 Z " fill="#4F5353" transform="translate(136,99)"/>
<path d="M0 0 C0 0.66 0 1.32 0 2 C-1.28650706 2.69710731 -2.57940665 3.38242876 -3.875 4.0625 C-4.95394531 4.63677734 -4.95394531 4.63677734 -6.0546875 5.22265625 C-6.69664063 5.47917969 -7.33859375 5.73570313 -8 6 C-8.66 5.67 -9.32 5.34 -10 5 C-8.71186658 4.16121545 -7.41936744 3.32913217 -6.125 2.5 C-5.40570313 2.0359375 -4.68640625 1.571875 -3.9453125 1.09375 C-2 0 -2 0 0 0 Z " fill="#040404" transform="translate(42,85)"/>
<path d="M0 0 C0.66 0.99 1.32 1.98 2 3 C1.0409375 3.6496875 1.0409375 3.6496875 0.0625 4.3125 C-2.26746003 5.91239177 -2.26746003 5.91239177 -3 9 C-3.99 9 -4.98 9 -6 9 C-4.47291037 5.56404834 -2.40072955 2.88087546 0 0 Z " fill="#7B7F7D" transform="translate(41,70)"/>
<path d="M0 0 C2.42115191 2.42115191 2.60948898 3.64160525 3 7 C2.5625 9.8125 2.5625 9.8125 2 12 C-0.13586678 8.79619983 -0.23132175 7.98060033 -0.125 4.3125 C-0.10695312 3.50425781 -0.08890625 2.69601563 -0.0703125 1.86328125 C-0.04710937 1.24839844 -0.02390625 0.63351563 0 0 Z " fill="#050505" transform="translate(61,136)"/>
<path d="M0 0 C0 2.62113708 -0.31292445 4.50935112 -1 7 C-2.32 7 -3.64 7 -5 7 C-4.75 4.625 -4.75 4.625 -4 2 C-1.9375 0.6875 -1.9375 0.6875 0 0 Z " fill="#0F100F" transform="translate(162,113)"/>
<path d="M0 0 C2.49505962 2.49505962 2.35948376 3.67328888 2.625 7.125 C2.69976562 8.03507812 2.77453125 8.94515625 2.8515625 9.8828125 C2.92503906 10.93082031 2.92503906 10.93082031 3 12 C-0.58050131 7.82744729 -0.26656798 5.33135955 0 0 Z " fill="#717276" transform="translate(156,84)"/>
<path d="M0 0 C0.66 0 1.32 0 2 0 C2.33 1.32 2.66 2.64 3 4 C1.02 4.99 -0.96 5.98 -3 7 C-1.125 1.125 -1.125 1.125 0 0 Z " fill="#141515" transform="translate(71,86)"/>
<path d="M0 0 C2.31 0 4.62 0 7 0 C7 1.32 7 2.64 7 4 C4.69 3.67 2.38 3.34 0 3 C0 2.01 0 1.02 0 0 Z " fill="#1E1F20" transform="translate(105,71)"/>
<path d="M0 0 C-0.99 0.33 -1.98 0.66 -3 1 C-3 1.66 -3 2.32 -3 3 C-5.64 3 -8.28 3 -11 3 C-7.72430636 -0.27569364 -4.48909309 -0.12469703 0 0 Z " fill="#8D9090" transform="translate(117,154)"/>
<path d="M0 0 C4.8 3.44615385 4.8 3.44615385 5.8125 6.25 C5.874375 6.8275 5.93625 7.405 6 8 C5.01 8 4.02 8 3 8 C0 2.25 0 2.25 0 0 Z " fill="#080808" transform="translate(66,143)"/>
<path d="M0 0 C1.98 0.99 1.98 0.99 4 2 C4 2.99 4 3.98 4 5 C4.66 5.33 5.32 5.66 6 6 C4.35 5.67 2.7 5.34 1 5 C0.67 3.35 0.34 1.7 0 0 Z " fill="#454648" transform="translate(86,131)"/>
<path d="M0 0 C0.625 1.875 0.625 1.875 1 4 C0.34 4.66 -0.32 5.32 -1 6 C-1.66 6 -2.32 6 -3 6 C-4.33783393 6.31478446 -5.67203709 6.64587656 -7 7 C-4.66666667 4.66666667 -2.33333333 2.33333333 0 0 Z " fill="#5D605F" transform="translate(162,124)"/>
<path d="M0 0 C1.32 0.33 2.64 0.66 4 1 C4.33 2.98 4.66 4.96 5 7 C4.01 7 3.02 7 2 7 C2 6.01 2 5.02 2 4 C1.34 3.67 0.68 3.34 0 3 C0 2.01 0 1.02 0 0 Z " fill="#1D1F1E" transform="translate(116,74)"/>
<path d="M0 0 C1.98 0 3.96 0 6 0 C5.67 1.32 5.34 2.64 5 4 C3.68 4 2.36 4 1 4 C0.67 2.68 0.34 1.36 0 0 Z " fill="#ACA8AD" transform="translate(129,163)"/>
<path d="M0 0 C2 3 2 3 2 7 C-1.16115776 5.63016497 -1.9927092 5.0109362 -4 2 C-3.01 2.33 -2.02 2.66 -1 3 C-0.67 2.01 -0.34 1.02 0 0 Z " fill="#6B6D6E" transform="translate(63,144)"/>
<path d="M0 0 C0.66 0.66 1.32 1.32 2 2 C1.01 4.97 0.02 7.94 -1 11 C-1.66 10.67 -2.32 10.34 -3 10 C-2.69201674 8.51988629 -2.378482 7.04092675 -2.0625 5.5625 C-1.88847656 4.73878906 -1.71445312 3.91507813 -1.53515625 3.06640625 C-1 1 -1 1 0 0 Z " fill="#373737" transform="translate(34,126)"/>
<path d="M0 0 C0.99 0.33 1.98 0.66 3 1 C3.33 2.98 3.66 4.96 4 7 C2.02 5.68 0.04 4.36 -2 3 C-1.34 2.01 -0.68 1.02 0 0 Z " fill="#8F8D8F" transform="translate(100,95)"/>
<path d="M0 0 C2 1 2 1 3 3 C1.75 4.5625 1.75 4.5625 0 6 C-2.1875 5.6875 -2.1875 5.6875 -4 5 C-2.68 3.35 -1.36 1.7 0 0 Z " fill="#707374" transform="translate(48,63)"/>
<path d="M0 0 C2.97 0 5.94 0 9 0 C7.515 1.485 7.515 1.485 6 3 C2.8125 2.6875 2.8125 2.6875 0 2 C0 1.34 0 0.68 0 0 Z " fill="#3C3E3D" transform="translate(58,63)"/>
<path d="M0 0 C1.65 0 3.3 0 5 0 C5.33 0.66 5.66 1.32 6 2 C3 4 3 4 0 4 C0 2.68 0 1.36 0 0 Z " fill="#4F4F52" transform="translate(68,41)"/>
<path d="M0 0 C1.9453125 -0.29296875 1.9453125 -0.29296875 4.125 -0.1875 C5.40375 -0.125625 6.6825 -0.06375 8 0 C6.68 0.33 5.36 0.66 4 1 C4 1.66 4 2.32 4 3 C2.02 3 0.04 3 -2 3 C-1.34 2.01 -0.68 1.02 0 0 Z " fill="#4A4B4D" transform="translate(107,163)"/>
<path d="M0 0 C0.66 0 1.32 0 2 0 C2.33 2.31 2.66 4.62 3 7 C0 6 0 6 -1.1875 3.9375 C-1.5896875 2.9784375 -1.5896875 2.9784375 -2 2 C-1.34 2 -0.68 2 0 2 C0 1.34 0 0.68 0 0 Z " fill="#737274" transform="translate(37,147)"/>
<path d="M0 0 C0.33 0 0.66 0 1 0 C1.25 6.625 1.25 6.625 -1 10 C-2.25 3.375 -2.25 3.375 0 0 Z " fill="#666669" transform="translate(34,101)"/>
<path d="M0 0 C0.66 0.33 1.32 0.66 2 1 C1.25 5.75 1.25 5.75 -1 8 C-1.04241723 5.66705225 -1.04092937 3.33297433 -1 1 C-0.67 0.67 -0.34 0.34 0 0 Z " fill="#B8B8BA" transform="translate(172,87)"/>
<path d="M0 0 C0 0.66 0 1.32 0 2 C0.66 2.33 1.32 2.66 2 3 C-1.3 3.33 -4.6 3.66 -8 4 C-6.68 3.67 -5.36 3.34 -4 3 C-4 2.34 -4 1.68 -4 1 C-2 0 -2 0 0 0 Z " fill="#616363" transform="translate(58,59)"/>
<path d="M0 0 C0.66 0 1.32 0 2 0 C2 0.66 2 1.32 2 2 C1.34 2 0.68 2 0 2 C0 1.34 0 0.68 0 0 Z " fill="#BCBBBC" transform="translate(167,88)"/>
</svg>
